<svg xmlns="http://www.w3.org/2000/svg" width="467" height="467" viewBox="0 0 467 467" version="1.1"><path d="M 316.470 46.424 C 308.561 47.899, 305.234 49.443, 289.324 59.023 C 274.133 68.169, 264.705 71.963, 254.627 72.983 C 242.691 74.192, 235.129 72.615, 214 64.509 C 183.172 52.682, 173.990 51.680, 154.790 58.047 C 130.177 66.209, 108.735 80.932, 95.088 99.044 C 86.070 111.012, 81.586 121.028, 77.047 139.348 C 74.887 148.065, 72.822 157.574, 72.459 160.480 L 71.799 165.764 59.150 175.223 C 44.744 185.994, 30.134 195.051, 16.725 201.523 C 5.210 207.081, 1.875 209.564, 4 210.996 C 6.277 212.531, 15.005 215, 18.155 215 C 26.766 215, 49.014 202.773, 82 179.913 C 112.598 158.707, 135.268 147.175, 157.799 141.353 C 172.749 137.490, 181.630 138.253, 210 145.839 C 237.476 153.186, 248.638 155.226, 261 155.162 C 274.365 155.093, 284.945 152.118, 316.197 139.641 C 330.664 133.866, 347.900 127.661, 354.500 125.853 C 365.481 122.845, 367.732 122.565, 381 122.552 C 403.284 122.531, 415.505 126.786, 428.438 139.071 C 439.977 150.032, 445.799 164.185, 444.710 178.630 C 443.997 188.089, 440.824 194.556, 432.110 204.310 C 428.179 208.709, 424.841 213.449, 424.464 215.164 C 422.887 222.342, 425.303 231.151, 434.544 251.929 C 437.255 258.024, 438.413 262.178, 438.729 266.929 C 439.125 272.899, 438.893 273.921, 436.196 278.106 C 434.160 281.265, 431.733 283.435, 428.474 285.013 C 423.829 287.261, 423.470 287.284, 412.611 286.037 C 396.281 284.160, 386.740 284.604, 366.056 288.202 C 347.544 291.422, 347.428 291.429, 317 291.167 C 277.990 290.831, 248.414 292.249, 225 295.576 C 208.101 297.978, 205.678 298.104, 197 297.028 C 191.775 296.380, 183.225 294.788, 178 293.490 C 142.356 284.637, 128.764 284.850, 111.326 294.534 C 102.025 299.699, 89.334 312.497, 85.172 320.910 C 75.545 340.366, 87.746 359.801, 115.307 368.912 C 129.107 373.474, 146.997 377.852, 160.470 379.965 C 173.722 382.042, 177.049 382.423, 226.923 387.565 C 245.856 389.518, 262.168 391.555, 263.173 392.093 C 265.688 393.439, 265.465 395.671, 262.750 396.328 C 256.722 397.786, 230.540 399.200, 218.280 398.728 C 206.514 398.275, 199.818 397.238, 172.464 391.626 C 115.497 379.940, 94.307 373.125, 69.450 358.496 C 42.150 342.429, 26.028 315.333, 26.007 285.480 C 25.995 268.322, 31.181 254.350, 45.417 233.189 C 53.239 221.562, 54.461 217.852, 51.066 216.035 C 47.864 214.322, 44.630 214.848, 39.946 217.842 C 30.027 224.185, 21.929 234.548, 14.284 250.688 C -1.905 284.862, 6.081 324.804, 35.488 356.749 C 51.721 374.385, 85.888 390.914, 128 401.505 C 149.606 406.939, 193.333 415.714, 207.994 417.557 C 224.893 419.682, 240.004 419.094, 256.754 415.659 C 270.311 412.879, 275.855 410.325, 280.275 404.825 C 286.241 397.401, 284.258 385.846, 276.091 380.441 C 271.957 377.706, 257.022 375.011, 246 375.012 C 238.056 375.013, 194 368.033, 194 366.774 C 194 365.191, 208.933 358.902, 218.381 356.506 C 230.074 353.540, 243.629 351.938, 258.609 351.751 C 277.661 351.513, 287.646 354.675, 301.840 365.440 C 305.877 368.502, 310.289 371.285, 311.644 371.626 C 316.627 372.876, 323.809 371.262, 334.085 366.582 C 349.891 359.384, 357.803 356.784, 365.500 356.257 C 378.761 355.350, 384.026 358.320, 392.530 371.503 C 398.386 380.579, 405.787 386.962, 414.185 390.178 C 421.586 393.012, 436.390 392.948, 444.138 390.050 C 452.985 386.739, 457.354 380.684, 454.999 374.996 C 453.841 372.202, 448.807 369, 445.570 369 C 444.675 369, 441.164 370.403, 437.767 372.118 C 432.869 374.590, 430.223 375.263, 424.983 375.368 C 416.207 375.543, 411.499 372.592, 406.954 364.065 C 400.996 352.887, 389.257 344.322, 375.454 341.083 C 368.254 339.393, 358.269 341.680, 338.330 349.587 C 329.437 353.114, 321.361 356, 320.385 356 C 319.408 356, 313.330 353.082, 306.879 349.515 C 285.732 337.823, 277.711 335.773, 253 335.743 C 233.959 335.720, 222.059 337.726, 206.043 343.656 C 196.654 347.133, 176.211 358.899, 172.570 362.923 C 170.470 365.243, 169.622 365.200, 152.211 361.896 C 125.473 356.821, 106.226 347.275, 102.995 337.485 C 100.209 329.045, 108.682 317.717, 123.108 310.593 C 134.718 304.860, 138.076 304.864, 165.500 310.648 C 187.542 315.296, 189.166 315.497, 204.500 315.484 C 213.439 315.476, 223.589 314.889, 227.500 314.155 C 242.149 311.403, 253.020 310.811, 304 309.988 C 343.472 309.351, 358.733 308.758, 365.500 307.600 C 394.755 302.593, 396.155 302.508, 408.662 304.989 C 422.653 307.765, 428.350 307.367, 436.981 303.010 C 449.318 296.782, 457.744 285.056, 458.733 272.740 C 459.341 265.157, 457.438 257.041, 452.373 245.623 C 450.391 241.155, 447.265 234.021, 445.426 229.768 L 442.082 222.036 447.636 216.783 C 453.803 210.951, 459.835 201.374, 462.616 193 C 463.981 188.889, 464.440 184.469, 464.432 175.500 C 464.423 164.680, 464.109 162.566, 461.235 154 C 459.483 148.775, 456.354 141.643, 454.282 138.151 C 447.154 126.136, 431.022 113.061, 417.306 108.180 C 410.684 105.824, 410.324 105.520, 408.044 100.366 C 393.754 68.062, 347.267 40.678, 316.470 46.424 M 321 65.936 C 315.529 67.169, 312.665 68.532, 301.022 75.443 C 279.730 88.081, 271.782 91.340, 257.909 93.119 C 246.186 94.623, 234.706 92.689, 215.145 85.915 C 178.430 73.202, 174.376 72.474, 162.500 76.460 C 150.972 80.329, 134.423 89.228, 125.210 96.513 C 110.924 107.809, 102.544 120.529, 97.082 139.208 L 94.244 148.916 97.372 146.547 C 101.830 143.171, 120.001 133.763, 130 129.653 C 134.675 127.732, 143.900 124.675, 150.500 122.861 C 161.312 119.888, 163.788 119.567, 175.500 119.616 C 187.902 119.669, 189.420 119.913, 208.500 124.936 C 261.491 138.884, 263.866 138.911, 295.539 125.917 C 312.651 118.897, 335.250 110.713, 345.500 107.826 C 356.821 104.637, 361.815 103.829, 374.445 103.146 L 386.390 102.500 379.697 94.831 C 362.998 75.698, 336.206 62.510, 321 65.936 M 366.295 162.071 C 360.162 163.914, 358.179 169.941, 362.402 173.908 C 365.695 177.002, 371.756 177.684, 376.395 175.483 C 380.949 173.322, 382.327 170.990, 381.045 167.618 C 379.210 162.793, 372.407 160.235, 366.295 162.071 M 390.893 161.720 L 387.286 162.104 389.643 168.597 C 393.134 178.215, 392.906 186.868, 388.953 194.778 C 383.986 204.718, 375.373 210.793, 364.902 211.743 C 354.130 212.719, 342.038 204.908, 336.361 193.305 C 333.356 187.163, 332.233 177.041, 333.804 170.250 C 334.963 165.242, 336.165 165.479, 320.695 167.667 C 306.911 169.616, 306.629 169.865, 306.604 180.111 C 306.582 189.133, 310.791 197.739, 318.893 205.241 C 326.206 212.011, 331.555 215.170, 341.610 218.655 C 348.583 221.072, 351.010 221.396, 362.500 221.445 C 377.108 221.507, 383.941 220.097, 394.928 214.754 C 402.769 210.941, 412.634 201.556, 415.853 194.846 C 420.780 184.575, 420.836 172.193, 415.990 164.225 L 414.029 161 404.265 161.168 C 398.894 161.261, 392.877 161.509, 390.893 161.720 M 187 175.657 C 181.164 178.008, 180.344 183.428, 185.204 187.518 C 187.910 189.795, 189.085 190.138, 192.766 189.723 C 197.493 189.190, 202 185.851, 202 182.881 C 202 179.353, 197.729 175.828, 192.967 175.428 C 190.510 175.221, 187.825 175.324, 187 175.657 M 210.250 176.663 C 209.012 176.925, 208.005 177.220, 208.011 177.320 C 208.017 177.419, 208.692 179.709, 209.511 182.409 C 214.320 198.263, 207.568 213.657, 192.564 221.043 C 181.296 226.590, 171.349 224.971, 161.624 216.008 C 153.398 208.425, 150.133 197.900, 152.055 185.165 C 152.664 181.130, 153.014 177.708, 152.831 177.559 C 152.241 177.078, 131.612 179.900, 127.844 180.978 C 123.393 182.251, 122 185.473, 122 194.490 C 122 210.708, 137.044 225.845, 159 231.718 C 168.098 234.152, 191.056 234.176, 199.791 231.760 C 222.459 225.491, 239.166 209.291, 240.728 192.063 C 241.127 187.668, 240.806 184.780, 239.556 181.506 L 237.835 177 228.667 176.989 C 223.625 176.983, 217.925 176.800, 216 176.582 C 214.075 176.364, 211.488 176.400, 210.250 176.663 M 268.374 240.474 C 257.916 242.372, 242.942 247.249, 226.382 254.150 C 208.678 261.528, 200.557 265.939, 196.250 270.517 C 192.513 274.489, 192.160 277.160, 195 280 C 199.511 284.511, 208.824 282.404, 241.500 269.483 C 277.857 255.107, 285.548 254.809, 321.500 266.381 C 337.936 271.672, 355.097 275.357, 359.151 274.467 C 365.127 273.154, 364.890 267.306, 358.668 262.560 C 354.405 259.309, 334.176 250.520, 319.725 245.640 C 300.753 239.234, 284.316 237.580, 268.374 240.474" stroke="none" fill="#ff3c00cc" fill-rule="evenodd"/></svg>