<svg xmlns="http://www.w3.org/2000/svg" width="512" height="512" viewBox="0 0 512 512" version="1.1"><path d="M 350.470 72.424 C 342.561 73.899, 339.234 75.443, 323.324 85.023 C 308.133 94.169, 298.705 97.963, 288.627 98.983 C 276.691 100.192, 269.129 98.615, 248 90.509 C 217.172 78.682, 207.990 77.680, 188.790 84.047 C 164.177 92.209, 142.735 106.932, 129.088 125.044 C 120.070 137.012, 115.586 147.028, 111.047 165.348 C 108.887 174.065, 106.822 183.574, 106.459 186.480 L 105.799 191.764 93.150 201.223 C 78.744 211.994, 64.134 221.051, 50.725 227.523 C 39.210 233.081, 35.875 235.564, 38 236.996 C 40.277 238.531, 49.005 241, 52.155 241 C 60.766 241, 83.014 228.773, 116 205.913 C 146.598 184.707, 169.268 173.175, 191.799 167.353 C 206.749 163.490, 215.630 164.253, 244 171.839 C 271.476 179.186, 282.638 181.226, 295 181.162 C 308.365 181.093, 318.945 178.118, 350.197 165.641 C 364.664 159.866, 381.900 153.661, 388.500 151.853 C 399.481 148.845, 401.732 148.565, 415 148.552 C 437.284 148.531, 449.505 152.786, 462.438 165.071 C 473.977 176.032, 479.799 190.185, 478.710 204.630 C 477.997 214.089, 474.824 220.556, 466.110 230.310 C 462.179 234.709, 458.841 239.449, 458.464 241.164 C 456.887 248.342, 459.303 257.151, 468.544 277.929 C 471.255 284.024, 472.413 288.178, 472.729 292.929 C 473.125 298.899, 472.893 299.921, 470.196 304.106 C 468.160 307.265, 465.733 309.435, 462.474 311.013 C 457.829 313.261, 457.470 313.284, 446.611 312.037 C 430.281 310.160, 420.740 310.604, 400.056 314.202 C 381.544 317.422, 381.428 317.429, 351 317.167 C 311.990 316.831, 282.414 318.249, 259 321.576 C 242.101 323.978, 239.678 324.104, 231 323.028 C 225.775 322.380, 217.225 320.788, 212 319.490 C 176.356 310.637, 162.764 310.850, 145.326 320.534 C 136.025 325.699, 123.334 338.497, 119.172 346.910 C 109.545 366.366, 121.746 385.801, 149.307 394.912 C 163.107 399.474, 180.997 403.852, 194.470 405.965 C 207.722 408.042, 211.049 408.423, 260.923 413.565 C 279.856 415.518, 296.168 417.555, 297.173 418.093 C 299.688 419.439, 299.465 421.671, 296.750 422.328 C 290.722 423.786, 264.540 425.200, 252.280 424.728 C 240.514 424.275, 233.818 423.238, 206.464 417.626 C 149.497 405.940, 128.307 399.125, 103.450 384.496 C 76.150 368.429, 60.028 341.333, 60.007 311.480 C 59.995 294.322, 65.181 280.350, 79.417 259.189 C 87.239 247.562, 88.461 243.852, 85.066 242.035 C 81.864 240.322, 78.630 240.848, 73.946 243.842 C 64.027 250.185, 55.929 260.548, 48.284 276.688 C 32.095 310.862, 40.081 350.804, 69.488 382.749 C 85.721 400.385, 119.888 416.914, 162 427.505 C 183.606 432.939, 227.333 441.714, 241.994 443.557 C 258.893 445.682, 274.004 445.094, 290.754 441.659 C 304.311 438.879, 309.855 436.325, 314.275 430.825 C 320.241 423.401, 318.258 411.846, 310.091 406.441 C 305.957 403.706, 291.022 401.011, 280 401.012 C 272.056 401.013, 228 394.033, 228 392.774 C 228 391.191, 242.933 384.902, 252.381 382.506 C 264.074 379.540, 277.629 377.938, 292.609 377.751 C 311.661 377.513, 321.646 380.675, 335.840 391.440 C 339.877 394.502, 344.289 397.285, 345.644 397.626 C 350.627 398.876, 357.809 397.262, 368.085 392.582 C 383.891 385.384, 391.803 382.784, 399.500 382.257 C 412.761 381.350, 418.026 384.320, 426.530 397.503 C 432.386 406.579, 439.787 412.962, 448.185 416.178 C 455.586 419.012, 470.390 418.948, 478.138 416.050 C 486.985 412.739, 491.354 406.684, 488.999 400.996 C 487.841 398.202, 482.807 395, 479.570 395 C 478.675 395, 475.358 396.305, 472.199 397.900 C 464.642 401.714, 456.689 402.733, 451.474 400.554 C 446.173 398.339, 444.426 396.579, 440.829 389.830 C 434.996 378.886, 423.148 370.296, 409.454 367.083 C 402.254 365.393, 392.269 367.680, 372.330 375.587 C 363.437 379.114, 355.361 382, 354.385 382 C 353.408 382, 347.330 379.082, 340.879 375.515 C 319.732 363.823, 311.711 361.773, 287 361.743 C 267.959 361.720, 256.059 363.726, 240.043 369.656 C 230.654 373.133, 210.211 384.899, 206.570 388.923 C 204.470 391.243, 203.622 391.200, 186.211 387.896 C 159.473 382.821, 140.226 373.275, 136.995 363.485 C 134.209 355.045, 142.682 343.717, 157.108 336.593 C 168.718 330.860, 172.076 330.864, 199.500 336.648 C 221.542 341.296, 223.166 341.497, 238.500 341.484 C 247.439 341.476, 257.589 340.889, 261.500 340.155 C 276.149 337.403, 287.020 336.811, 338 335.988 C 377.472 335.351, 392.733 334.758, 399.500 333.600 C 428.755 328.593, 430.155 328.508, 442.662 330.989 C 456.653 333.765, 462.350 333.367, 470.981 329.010 C 483.318 322.782, 491.744 311.056, 492.733 298.740 C 493.341 291.157, 491.438 283.041, 486.373 271.623 C 484.391 267.155, 481.265 260.021, 479.426 255.768 L 476.082 248.036 481.636 242.783 C 487.803 236.951, 493.835 227.374, 496.616 219 C 497.981 214.889, 498.440 210.469, 498.432 201.500 C 498.423 190.680, 498.109 188.566, 495.235 180 C 493.483 174.775, 490.354 167.643, 488.282 164.151 C 481.154 152.136, 465.022 139.061, 451.306 134.180 C 444.684 131.824, 444.324 131.520, 442.044 126.366 C 427.754 94.062, 381.267 66.678, 350.470 72.424 M 355 91.936 C 349.529 93.169, 346.665 94.532, 335.022 101.443 C 313.730 114.081, 305.782 117.340, 291.909 119.119 C 280.186 120.623, 268.706 118.689, 249.145 111.915 C 212.430 99.202, 208.376 98.474, 196.500 102.460 C 184.972 106.329, 168.423 115.228, 159.210 122.513 C 144.924 133.809, 136.544 146.529, 131.082 165.208 L 128.244 174.916 131.372 172.547 C 135.830 169.171, 154.001 159.763, 164 155.653 C 168.675 153.732, 177.900 150.675, 184.500 148.861 C 195.312 145.888, 197.788 145.567, 209.500 145.616 C 221.902 145.669, 223.420 145.913, 242.500 150.936 C 295.491 164.884, 297.866 164.911, 329.539 151.917 C 346.651 144.897, 369.250 136.713, 379.500 133.826 C 390.821 130.637, 395.815 129.829, 408.445 129.146 L 420.390 128.500 413.697 120.831 C 396.998 101.698, 370.206 88.510, 355 91.936 M 400.295 188.071 C 394.162 189.914, 392.179 195.941, 396.402 199.908 C 399.695 203.002, 405.756 203.684, 410.395 201.483 C 414.949 199.322, 416.327 196.990, 415.045 193.618 C 413.210 188.793, 406.407 186.235, 400.295 188.071 M 424.893 187.720 L 421.286 188.104 423.643 194.597 C 427.134 204.215, 426.906 212.868, 422.953 220.778 C 417.986 230.718, 409.373 236.793, 398.902 237.743 C 388.130 238.719, 376.038 230.908, 370.361 219.305 C 367.356 213.163, 366.233 203.041, 367.804 196.250 C 368.963 191.242, 370.165 191.479, 354.695 193.667 C 340.911 195.616, 340.629 195.865, 340.604 206.111 C 340.582 215.133, 344.791 223.739, 352.893 231.241 C 360.206 238.011, 365.555 241.170, 375.610 244.655 C 382.583 247.072, 385.010 247.396, 396.500 247.445 C 411.108 247.507, 417.941 246.097, 428.928 240.754 C 436.769 236.941, 446.634 227.556, 449.853 220.846 C 454.780 210.575, 454.836 198.193, 449.990 190.225 L 448.029 187 438.265 187.168 C 432.894 187.261, 426.877 187.509, 424.893 187.720 M 221 201.657 C 215.164 204.008, 214.344 209.428, 219.204 213.518 C 221.910 215.795, 223.085 216.138, 226.766 215.723 C 231.493 215.190, 236 211.851, 236 208.881 C 236 205.353, 231.729 201.828, 226.967 201.428 C 224.510 201.221, 221.825 201.324, 221 201.657 M 244.250 202.663 C 243.012 202.925, 242.005 203.220, 242.011 203.320 C 242.017 203.419, 242.692 205.709, 243.511 208.409 C 248.320 224.263, 241.568 239.657, 226.564 247.043 C 215.296 252.590, 205.349 250.971, 195.624 242.008 C 187.398 234.425, 184.133 223.900, 186.055 211.165 C 186.664 207.130, 187.014 203.708, 186.831 203.559 C 186.241 203.078, 165.612 205.900, 161.844 206.978 C 157.393 208.251, 156 211.473, 156 220.490 C 156 236.708, 171.044 251.845, 193 257.718 C 202.098 260.152, 225.056 260.176, 233.791 257.760 C 256.459 251.491, 273.166 235.291, 274.728 218.063 C 275.127 213.668, 274.806 210.780, 273.556 207.506 L 271.835 203 262.667 202.989 C 257.625 202.983, 251.925 202.800, 250 202.582 C 248.075 202.364, 245.488 202.400, 244.250 202.663 M 302.374 266.474 C 291.916 268.372, 276.942 273.249, 260.382 280.150 C 242.678 287.528, 234.557 291.939, 230.250 296.517 C 226.513 300.489, 226.160 303.160, 229 306 C 233.511 310.511, 242.824 308.404, 275.500 295.483 C 311.857 281.107, 319.548 280.809, 355.500 292.381 C 371.936 297.672, 389.097 301.357, 393.151 300.467 C 399.127 299.154, 398.890 293.306, 392.668 288.560 C 388.405 285.309, 368.176 276.520, 353.725 271.640 C 334.753 265.234, 318.316 263.580, 302.374 266.474" stroke="none" fill="#f9f8f8" fill-rule="evenodd"/></svg>