<svg xmlns="http://www.w3.org/2000/svg" width="431" height="431" viewBox="0 0 431 431" version="1.1"><path d="M 286.251 44.545 C 279.283 46.421, 274.555 48.915, 262.019 57.324 C 248.852 66.157, 241.277 68.955, 230.500 68.967 C 219.816 68.979, 214.022 67.282, 198.539 59.603 C 181.974 51.387, 175.263 49.589, 164 50.347 C 133.100 52.428, 96.520 77.845, 81.747 107.500 C 77.077 116.875, 74.222 124.931, 70.017 140.609 L 66.500 153.718 47.500 166.535 C 25.004 181.711, 10.386 192.658, 6.103 197.535 C 0.340 204.099, 2.848 212, 10.695 212 C 13.749 212, 16.046 210.730, 23.945 204.672 C 36.037 195.398, 50.587 185.265, 79 166.331 C 108.086 146.948, 117.088 141.611, 128.679 136.876 C 144.758 130.309, 152.636 128.651, 168 128.601 C 182.994 128.552, 187.788 129.362, 206.020 135.026 C 238.769 145.201, 242.102 144.959, 290.500 128.909 C 325.623 117.260, 341.945 113.651, 359.500 113.652 C 370.375 113.653, 373.468 114.009, 378.420 115.831 C 391.554 120.664, 400.389 128.663, 406.268 141.047 C 415.140 159.735, 413.111 169.273, 396.873 185.206 C 390.492 191.467, 388 194.600, 388 196.362 C 388 197.710, 391.774 210.217, 396.386 224.156 C 406.923 256.003, 407.389 258.038, 406.725 269.375 C 405.608 288.460, 396.698 302.832, 376.659 317.870 C 347.898 339.453, 308.011 354.049, 255.513 362.200 C 243.829 364.014, 237.180 364.378, 215.500 364.392 C 186.362 364.411, 174.608 363.068, 146.500 356.503 C 91.341 343.621, 57.384 326.812, 41.471 304.512 C 32.319 291.687, 28 278.269, 28 262.665 C 28 249.698, 30.984 240.867, 46.080 209.167 C 48.786 203.484, 51 198.646, 51 198.417 C 51 195.632, 33.237 208.563, 27.581 215.466 C 21.841 222.472, 17.455 230.289, 13.909 239.835 C 11.042 247.554, 10.640 249.940, 10.231 261.682 C 9.814 273.679, 10.006 275.679, 12.369 283.918 C 22.382 318.824, 46.852 341.421, 94.566 359.821 C 110.687 366.038, 154.670 377.160, 173.041 379.665 C 183.520 381.094, 192.920 381.500, 215.500 381.499 C 250.264 381.498, 268.406 379.452, 295.500 372.477 C 365.150 354.547, 408.284 325.297, 422.286 286.500 C 424.112 281.441, 424.456 278.304, 424.475 266.500 L 424.498 252.500 417.788 233 C 414.097 222.275, 410.052 210.700, 408.799 207.278 L 406.520 201.056 411.098 196.278 C 423.586 183.242, 427.946 174.892, 428.737 162.500 C 429.328 153.237, 427.606 145.090, 422.947 135.096 C 419.109 126.864, 411.439 116.574, 405.401 111.556 C 399.733 106.846, 385.596 99.390, 380.531 98.440 C 377.433 97.859, 376.539 97.023, 374.317 92.631 C 364.557 73.340, 336.779 51.054, 315.020 45.061 C 306.244 42.643, 294.121 42.426, 286.251 44.545 M 287.568 62.426 C 284.305 63.800, 278.576 67.079, 274.837 69.712 C 255.985 82.988, 248.535 86.087, 233.856 86.760 C 218.248 87.476, 211.239 85.632, 191.572 75.635 L 175.569 67.500 166.535 67.571 C 158.837 67.631, 156.304 68.113, 149.422 70.827 C 129.230 78.790, 109.322 94.957, 100.013 110.952 C 95.872 118.067, 88.440 136.774, 89.381 137.714 C 89.627 137.960, 93.611 135.885, 98.234 133.103 C 110.841 125.515, 124.272 119.473, 136 116.114 C 151.895 111.561, 158.673 110.684, 173.384 111.278 C 187.080 111.831, 199.412 114.358, 221.272 121.090 C 239.118 126.586, 241.788 126.279, 277.513 114.636 C 315.112 102.382, 335.353 97.374, 349.744 96.764 C 353.178 96.619, 355.991 96.226, 355.994 95.891 C 356.008 94.462, 348.887 86.479, 343.085 81.418 C 334.627 74.041, 326.415 68.573, 317.280 64.235 C 310.894 61.202, 308.382 60.569, 301.588 60.276 C 294.717 59.979, 292.607 60.303, 287.568 62.426 M 364.850 159.440 C 365.542 176.112, 358.874 187.398, 345 193.040 C 339.953 195.092, 331.383 194.711, 325.670 192.181 C 317.850 188.718, 313.381 184.519, 309.825 177.295 C 307.031 171.621, 306.523 169.402, 306.170 161.352 C 305.945 156.208, 305.703 152.013, 305.631 152.030 C 299.729 153.366, 280.459 160.122, 280.183 160.952 C 279.265 163.705, 286.507 175.596, 293 182 C 310.592 199.350, 335.248 207.182, 357.500 202.489 C 365.472 200.808, 374.782 196.513, 380.186 192.022 C 386.888 186.454, 391.651 173.032, 390.335 163.427 C 389.620 158.212, 387.608 156.800, 375.645 153.113 C 364.301 149.617, 364.439 149.536, 364.850 159.440 M 336.998 156.002 C 334.204 158.796, 334.730 162.730, 338.248 165.345 C 341.662 167.883, 345.682 166.821, 347.949 162.783 C 349.341 160.301, 349.297 159.874, 347.381 157.296 C 344.667 153.646, 339.943 153.057, 336.998 156.002 M 201.431 170.756 C 201.372 178.219, 200.945 180.370, 198.519 185.438 C 191.276 200.569, 175.399 207.719, 160.329 202.636 C 153.870 200.457, 146.635 194.187, 143.546 188.090 C 140.640 182.356, 138.546 172.185, 139.307 167.498 C 139.619 165.574, 139.704 164, 139.495 164 C 139.287 164, 134.028 165.543, 127.808 167.428 C 113.562 171.747, 107 174.546, 107 176.305 C 107 179.501, 113.346 189.992, 118.229 194.868 C 124.936 201.566, 132.409 206.115, 142.510 209.648 C 149.903 212.235, 151.621 212.442, 165.500 212.423 C 178.919 212.405, 181.308 212.132, 188.167 209.834 C 205.931 203.882, 219.813 192.597, 226.299 178.838 C 230.749 169.398, 231.260 167.203, 229.147 166.596 C 223.833 165.070, 207.535 162.001, 204.767 162.006 L 201.500 162.012 201.431 170.756 M 172.223 164.557 C 169.583 166.405, 169.239 171.096, 171.571 173.429 C 173.806 175.663, 179.574 175.426, 182 173 C 184.533 170.467, 184.518 168.929, 181.927 165.635 C 179.542 162.603, 175.632 162.168, 172.223 164.557 M 255.500 220.603 C 243.204 222.365, 237.129 223.898, 219.500 229.687 C 208.500 233.299, 197.700 237.148, 195.500 238.240 C 186.884 242.517, 185.012 246.577, 189.337 251.605 C 192.922 255.773, 197.843 255.189, 218.727 248.120 C 228.579 244.785, 240.433 241.147, 245.070 240.036 C 269.019 234.299, 288.242 237.422, 313.068 251.084 C 319.980 254.888, 326.415 258, 327.368 258 C 331.908 258, 336 254.233, 336 250.053 C 336 242.805, 308.375 227.001, 288.578 222.923 C 279.668 221.088, 261.171 219.791, 255.500 220.603 M 62.275 271.012 C 60.501 271.411, 57.889 272.498, 56.470 273.427 C 54.281 274.862, 53.937 275.739, 54.195 279.217 C 54.465 282.847, 54.946 283.548, 58.393 285.331 C 62.093 287.245, 65.948 287.431, 136.393 289.096 C 274.282 292.354, 304.411 293.024, 342 293.666 L 379.500 294.306 382.750 291.564 C 387.632 287.445, 387.046 281.207, 381.500 278.266 C 380.237 277.596, 358.863 276.795, 323.500 276.091 C 292.700 275.478, 247.925 274.537, 224 274.001 C 200.075 273.465, 158.450 272.568, 131.500 272.010 C 104.550 271.451, 78.675 270.835, 74 270.641 C 69.325 270.447, 64.049 270.614, 62.275 271.012 M 151.500 304.570 C 149.850 304.804, 145.125 305.467, 141 306.044 C 128.809 307.749, 114.046 312.804, 110.250 316.573 C 106.165 320.629, 106.147 323.104, 110.177 326.496 C 114.056 329.760, 116.143 329.650, 137 325.081 C 145.682 323.180, 155.914 321.673, 162.500 321.327 C 180.034 320.405, 230.546 323.251, 289.500 328.482 C 314.644 330.713, 322.893 330.545, 327.102 327.718 C 331.013 325.091, 331.988 321.157, 329.623 317.547 C 327.669 314.564, 321.910 313.298, 307 312.573 C 300.675 312.265, 286.725 311.124, 276 310.037 C 238.190 306.206, 217.177 304.922, 186 304.536 C 168.675 304.321, 153.150 304.337, 151.500 304.570" stroke="none" fill="#ffd900cc" fill-rule="evenodd"/></svg>