<svg xmlns="http://www.w3.org/2000/svg" width="512" height="512" viewBox="0 0 512 512" version="1.1"><path d="M 347 73.125 C 340.407 74.194, 326.661 80.643, 314.424 88.409 C 299.054 98.163, 285.808 100.836, 271.337 97.106 C 266.848 95.949, 257.623 92.701, 250.837 89.888 C 222.610 78.186, 215.139 76.584, 201.733 79.357 C 176.561 84.562, 139.530 110.131, 123.963 133.054 C 118.371 141.289, 114.504 149.965, 107.050 171 C 96.682 200.259, 96.484 200.512, 69 219.763 C 42.826 238.095, 41.133 239.775, 42.509 246.041 L 43.167 249.037 46.050 246.612 C 50.898 242.532, 71.761 229.699, 85.788 222.168 C 93.097 218.244, 105.022 211.126, 112.288 206.351 C 151.464 180.608, 161.092 175.449, 180.500 169.797 C 205.952 162.386, 216.448 163.462, 264.564 178.414 C 270.648 180.305, 280.098 182.408, 285.564 183.087 C 300.938 184.998, 310.257 182.469, 336.500 169.262 C 378.575 148.088, 404.383 143.035, 433.078 150.354 C 445.250 153.459, 452.901 157.356, 460.646 164.394 C 472.930 175.558, 479.675 189.823, 478.712 202.604 C 477.939 212.859, 473.888 220.328, 463.753 230.181 L 455.724 237.986 457.455 246.704 C 458.407 251.499, 460.300 258.365, 461.662 261.961 C 466.365 274.387, 474 297.312, 474 299.010 C 474 300.392, 473.009 300.724, 468.750 300.768 C 463.098 300.826, 455.001 303.306, 423 314.779 C 403.171 321.888, 386.025 326.236, 362.500 330.122 C 351.802 331.889, 343.945 332.352, 318.129 332.732 C 298.067 333.027, 283.286 332.784, 277.129 332.059 C 257.009 329.688, 220.850 319.931, 200.715 311.439 C 191.109 307.388, 174.793 298.383, 161.765 289.944 C 152.702 284.073, 142.563 280, 137.009 280 C 127.504 280, 116.001 287.920, 112.001 297.220 C 103.758 316.380, 113.993 334.505, 139.577 346.053 C 184.435 366.303, 242.273 381.638, 293.789 386.941 C 309.366 388.544, 317.306 388.267, 349.725 384.989 C 397.978 380.110, 399.759 379.827, 428.992 372.404 C 440.813 369.402, 451.143 367.073, 451.948 367.228 C 454.160 367.655, 423.988 387.474, 413.554 392.449 C 399.772 399.019, 374.337 406.095, 330.878 415.447 C 293.795 423.427, 283.082 425, 265.811 425 C 250.245 425, 240.439 423.653, 204 416.507 C 168.716 409.588, 159.091 407.303, 142 401.788 C 113.083 392.457, 83.533 370.936, 71.677 350.573 C 56.211 324.011, 55.525 299.048, 69.476 270.500 C 72.843 263.612, 78.091 255.259, 83.515 248.154 C 92.891 235.875, 92.767 235.309, 82 241.221 C 59.042 253.826, 46.354 271.750, 40.521 299.815 C 36.930 317.092, 39.481 332.249, 49.184 351.280 C 60.600 373.672, 72.062 386.519, 93.865 401.359 C 114.020 415.077, 133.814 422.286, 176.500 431.457 C 207.374 438.090, 235.337 442.895, 253.899 444.756 C 269.328 446.304, 271.131 446.297, 284.399 444.644 C 292.154 443.678, 300.975 442.258, 304 441.490 C 307.025 440.721, 322.775 437.125, 339 433.497 C 388.639 422.399, 410.984 415.423, 429.819 405.143 C 458.039 389.741, 471.435 378.316, 482.935 359.839 C 490.139 348.265, 492.376 343.048, 494.597 332.645 C 498.978 312.114, 494.482 290.560, 478.322 254.636 C 474.157 245.376, 473.979 246.011, 483.894 234.760 C 504.502 211.376, 504.562 183.645, 484.057 159.231 C 476.105 149.762, 464.766 140.526, 456 136.378 C 451.875 134.426, 447.411 132.305, 446.081 131.664 C 444.750 131.024, 440.629 126.277, 436.922 121.115 C 425.606 105.358, 407.855 89.002, 395.048 82.531 C 388.294 79.119, 375.048 75.178, 364.672 73.496 C 354.561 71.856, 354.801 71.861, 347 73.125 M 339.603 94.996 C 335.809 96.614, 328.609 101.052, 323.603 104.859 C 313.648 112.428, 310.251 114.164, 299 117.426 C 292.493 119.312, 290.193 119.504, 281.629 118.871 C 268.323 117.887, 264.368 116.845, 244 108.956 C 221.143 100.103, 216.006 98.661, 206.992 98.573 C 197.703 98.483, 192.496 100.832, 172.287 114.229 C 149.253 129.499, 138.808 141.843, 131.413 162.532 C 127.983 172.129, 127.722 174.266, 130.226 172.268 C 130.927 171.709, 137.575 168.549, 145 165.247 C 175.908 151.498, 189.821 147.881, 212.500 147.697 C 231.204 147.545, 238.089 148.945, 275.828 160.582 C 283.708 163.012, 291.358 164.992, 292.828 164.983 C 295.627 164.966, 308.848 159.953, 350.540 143.101 C 380.635 130.937, 385.775 129.651, 404.658 129.565 L 418.817 129.500 417.158 126.662 C 412.053 117.923, 397.486 105.741, 384.105 99.019 C 377.233 95.567, 361.666 91.996, 353.622 92.027 C 348.010 92.048, 345.037 92.678, 339.603 94.996 M 358.500 190.480 C 354.650 191.194, 349.475 192.534, 347 193.456 C 344.525 194.378, 341.712 195.380, 340.750 195.683 C 338.388 196.426, 338.445 202.039, 340.895 209.909 C 349.413 237.279, 385.890 254.639, 416.834 246.049 C 438.453 240.048, 453.086 221.332, 451.807 201.315 L 451.500 196.500 446.500 194.861 C 443.750 193.959, 439.700 192.927, 437.500 192.567 L 433.500 191.912 433.453 201.706 C 433.412 210.090, 433.029 212.317, 430.792 217.175 C 425.308 229.085, 413.145 238, 402.378 238 C 394.121 238, 386.453 234.613, 379.920 228.080 C 371.863 220.023, 369.555 213.735, 369.524 199.750 C 369.496 187.422, 370.487 188.255, 358.500 190.480 M 395.067 192.874 C 393.229 196.310, 393.804 199.825, 396.493 201.587 C 399.869 203.799, 403.775 202.746, 404.615 199.398 C 405.999 193.884, 397.599 188.144, 395.067 192.874 M 245.648 201.140 C 246.116 202.438, 246.500 208.225, 246.500 214 C 246.500 223.747, 246.289 224.880, 243.562 229.804 C 237.712 240.363, 227.274 246.999, 215.276 247.786 C 208.917 248.203, 207.396 247.939, 202.585 245.586 C 195.464 242.101, 187.738 233.667, 185.344 226.762 C 184.117 223.223, 183.516 218.605, 183.510 212.662 L 183.500 203.824 179.779 204.419 C 174.986 205.186, 161.517 209.441, 155.601 212.059 C 151.352 213.938, 151 214.371, 151 217.724 C 151 223.688, 158.050 236.960, 164.113 242.412 C 175.635 252.771, 189.245 257.824, 208 258.704 C 243.320 260.362, 271.335 241.441, 276.277 212.591 C 277.322 206.489, 277.265 205.667, 275.715 204.534 C 273.813 203.142, 261.053 200.504, 251.148 199.454 L 244.795 198.780 245.648 201.140 M 215.637 201.506 C 212.958 204.185, 212.651 207.055, 214.743 209.870 C 216.898 212.770, 221.317 213.812, 223.560 211.950 C 225.826 210.070, 225.307 205.216, 222.545 202.455 C 219.724 199.634, 217.777 199.366, 215.637 201.506 M 303.387 267.057 C 285.743 270.765, 265.812 279.012, 243.623 291.786 C 229.460 299.941, 224.507 306.793, 230.470 309.984 C 232.684 311.169, 233.746 310.939, 240.720 307.769 C 264.418 296.998, 297.921 287.389, 318.500 285.463 C 331.358 284.259, 346.700 287.568, 372.934 297.205 C 387.857 302.686, 391.038 304.142, 395.683 307.618 C 399.556 310.516, 401.148 310.599, 403.477 308.026 C 406.156 305.065, 404.057 301.127, 395.765 293.559 C 387.725 286.221, 377.022 279.899, 361.618 273.389 C 341.983 265.091, 322.715 262.996, 303.387 267.057 M 129.636 303.110 C 126.877 307.049, 127.551 311.497, 131.583 315.960 C 140.328 325.640, 184.731 344.306, 220.500 353.338 C 284.263 369.440, 342.265 371.183, 407.309 358.950 C 426.804 355.283, 458.449 343.688, 470.847 335.668 C 476.644 331.917, 478 330.556, 478 328.485 C 478 322.452, 471.414 317.336, 465.129 318.487 C 463.133 318.853, 455.425 321.532, 448 324.441 C 419.478 335.616, 385.288 345.201, 360.742 348.905 C 330.465 353.473, 321.891 354.040, 299 352.985 C 273.977 351.832, 260.594 349.588, 234 342.084 C 195.260 331.153, 175.005 322.767, 151.441 307.905 C 143.373 302.815, 140.537 301.553, 136.386 301.204 C 131.900 300.828, 131.070 301.062, 129.636 303.110" stroke="none" fill="#f9f9f9" fill-rule="evenodd"/></svg>