<svg xmlns="http://www.w3.org/2000/svg" width="466" height="466" viewBox="0 0 466 466" version="1.1"><path d="M 311 42.125 C 304.407 43.194, 290.661 49.643, 278.424 57.409 C 263.054 67.163, 249.808 69.836, 235.337 66.106 C 230.848 64.949, 221.623 61.701, 214.837 58.888 C 186.610 47.186, 179.139 45.584, 165.733 48.357 C 140.561 53.562, 103.530 79.131, 87.963 102.054 C 82.371 110.289, 78.504 118.965, 71.050 140 C 60.682 169.259, 60.484 169.512, 33 188.763 C 6.826 207.095, 5.133 208.775, 6.509 215.041 L 7.167 218.037 10.050 215.612 C 14.898 211.532, 35.761 198.699, 49.788 191.168 C 57.097 187.244, 69.022 180.126, 76.288 175.351 C 115.464 149.608, 125.092 144.449, 144.500 138.797 C 169.952 131.386, 180.448 132.462, 228.564 147.414 C 234.648 149.305, 244.098 151.408, 249.564 152.087 C 264.938 153.998, 274.257 151.469, 300.500 138.262 C 342.575 117.088, 368.383 112.035, 397.078 119.354 C 409.250 122.459, 416.901 126.356, 424.646 133.394 C 436.930 144.558, 443.675 158.823, 442.712 171.604 C 441.939 181.859, 437.888 189.328, 427.753 199.181 L 419.724 206.986 421.455 215.704 C 422.407 220.499, 424.300 227.365, 425.662 230.961 C 430.365 243.387, 438 266.312, 438 268.010 C 438 269.392, 437.009 269.724, 432.750 269.768 C 427.098 269.826, 419.001 272.306, 387 283.779 C 367.171 290.888, 350.025 295.236, 326.500 299.122 C 315.802 300.889, 307.945 301.352, 282.129 301.732 C 262.067 302.027, 247.286 301.784, 241.129 301.059 C 221.009 298.688, 184.850 288.931, 164.715 280.439 C 155.109 276.388, 138.793 267.383, 125.765 258.944 C 116.702 253.073, 106.563 249, 101.009 249 C 91.504 249, 80.001 256.920, 76.001 266.220 C 67.758 285.380, 77.993 303.505, 103.577 315.053 C 148.435 335.303, 206.273 350.638, 257.789 355.941 C 273.366 357.544, 281.306 357.267, 313.725 353.989 C 361.978 349.110, 363.759 348.827, 392.992 341.404 C 404.813 338.402, 415.143 336.073, 415.948 336.228 C 418.160 336.655, 387.988 356.474, 377.554 361.449 C 363.772 368.019, 338.337 375.095, 294.878 384.447 C 257.795 392.427, 247.082 394, 229.811 394 C 214.245 394, 204.439 392.653, 168 385.507 C 132.716 378.588, 123.091 376.303, 106 370.788 C 77.083 361.457, 47.533 339.936, 35.677 319.573 C 20.211 293.011, 19.525 268.048, 33.476 239.500 C 36.843 232.612, 42.091 224.259, 47.515 217.154 C 56.891 204.875, 56.767 204.309, 46 210.221 C 23.042 222.826, 10.354 240.750, 4.521 268.815 C 0.930 286.092, 3.481 301.249, 13.184 320.280 C 24.600 342.672, 36.062 355.519, 57.865 370.359 C 78.020 384.077, 97.814 391.286, 140.500 400.457 C 171.374 407.090, 199.337 411.895, 217.899 413.756 C 233.328 415.304, 235.131 415.297, 248.399 413.644 C 256.154 412.678, 264.975 411.258, 268 410.490 C 271.025 409.721, 286.775 406.125, 303 402.497 C 352.639 391.399, 374.984 384.423, 393.819 374.143 C 422.039 358.741, 435.435 347.316, 446.935 328.839 C 454.139 317.265, 456.376 312.048, 458.597 301.645 C 462.978 281.114, 458.482 259.560, 442.322 223.636 C 438.157 214.376, 437.979 215.011, 447.894 203.760 C 468.502 180.376, 468.562 152.645, 448.057 128.231 C 440.105 118.762, 428.766 109.526, 420 105.378 C 415.875 103.426, 411.411 101.305, 410.081 100.664 C 408.750 100.024, 404.629 95.277, 400.922 90.115 C 389.606 74.358, 371.855 58.002, 359.048 51.531 C 352.294 48.119, 339.048 44.178, 328.672 42.496 C 318.561 40.856, 318.801 40.861, 311 42.125 M 303.603 63.996 C 299.809 65.614, 292.609 70.052, 287.603 73.859 C 277.648 81.428, 274.251 83.164, 263 86.426 C 256.493 88.312, 254.193 88.504, 245.629 87.871 C 232.323 86.887, 228.368 85.845, 208 77.956 C 185.143 69.103, 180.006 67.661, 170.992 67.573 C 161.703 67.483, 156.496 69.832, 136.287 83.229 C 113.253 98.499, 102.808 110.843, 95.413 131.532 C 91.983 141.129, 91.722 143.266, 94.226 141.268 C 94.927 140.709, 101.575 137.549, 109 134.247 C 139.908 120.498, 153.821 116.881, 176.500 116.697 C 195.204 116.545, 202.089 117.945, 239.828 129.582 C 247.708 132.012, 255.358 133.992, 256.828 133.983 C 259.627 133.966, 272.848 128.953, 314.540 112.101 C 344.635 99.937, 349.775 98.651, 368.658 98.565 L 382.817 98.500 381.158 95.662 C 376.053 86.923, 361.486 74.741, 348.105 68.019 C 341.233 64.567, 325.666 60.996, 317.622 61.027 C 312.010 61.048, 309.037 61.678, 303.603 63.996 M 322.500 159.480 C 318.650 160.194, 313.475 161.534, 311 162.456 C 308.525 163.378, 305.712 164.380, 304.750 164.683 C 302.388 165.426, 302.445 171.039, 304.895 178.909 C 313.413 206.279, 349.890 223.639, 380.834 215.049 C 402.453 209.048, 417.086 190.332, 415.807 170.315 L 415.500 165.500 410.500 163.861 C 407.750 162.959, 403.700 161.927, 401.500 161.567 L 397.500 160.912 397.453 170.706 C 397.412 179.090, 397.029 181.317, 394.792 186.175 C 389.308 198.085, 377.145 207, 366.378 207 C 358.121 207, 350.453 203.613, 343.920 197.080 C 335.863 189.023, 333.555 182.735, 333.524 168.750 C 333.496 156.422, 334.487 157.255, 322.500 159.480 M 359.067 161.874 C 357.229 165.310, 357.804 168.825, 360.493 170.587 C 363.869 172.799, 367.775 171.746, 368.615 168.398 C 369.999 162.884, 361.599 157.144, 359.067 161.874 M 209.648 170.140 C 210.116 171.438, 210.500 177.225, 210.500 183 C 210.500 192.747, 210.289 193.880, 207.562 198.804 C 201.712 209.363, 191.274 215.999, 179.276 216.786 C 172.917 217.203, 171.396 216.939, 166.585 214.586 C 159.464 211.101, 151.738 202.667, 149.344 195.762 C 148.117 192.223, 147.516 187.605, 147.510 181.662 L 147.500 172.824 143.779 173.419 C 138.986 174.186, 125.517 178.441, 119.601 181.059 C 115.352 182.938, 115 183.371, 115 186.724 C 115 192.688, 122.050 205.960, 128.113 211.412 C 139.635 221.771, 153.245 226.824, 172 227.704 C 207.320 229.362, 235.335 210.441, 240.277 181.591 C 241.322 175.489, 241.265 174.667, 239.715 173.534 C 237.813 172.142, 225.053 169.504, 215.148 168.454 L 208.795 167.780 209.648 170.140 M 179.637 170.506 C 176.958 173.185, 176.651 176.055, 178.743 178.870 C 180.898 181.770, 185.317 182.812, 187.560 180.950 C 189.826 179.070, 189.307 174.216, 186.545 171.455 C 183.724 168.634, 181.777 168.366, 179.637 170.506 M 267.387 236.057 C 249.743 239.765, 229.812 248.012, 207.623 260.786 C 193.460 268.941, 188.507 275.793, 194.470 278.984 C 196.684 280.169, 197.746 279.939, 204.720 276.769 C 228.418 265.998, 261.921 256.389, 282.500 254.463 C 295.358 253.259, 310.700 256.568, 336.934 266.205 C 351.857 271.686, 355.038 273.142, 359.683 276.618 C 363.556 279.516, 365.148 279.599, 367.477 277.026 C 370.156 274.065, 368.057 270.127, 359.765 262.559 C 351.725 255.221, 341.022 248.899, 325.618 242.389 C 305.983 234.091, 286.715 231.996, 267.387 236.057 M 93.636 272.110 C 90.877 276.049, 91.551 280.497, 95.583 284.960 C 104.328 294.640, 148.731 313.306, 184.500 322.338 C 248.263 338.440, 306.265 340.183, 371.309 327.950 C 390.804 324.283, 422.449 312.688, 434.847 304.668 C 440.644 300.917, 442 299.556, 442 297.485 C 442 291.452, 435.414 286.336, 429.129 287.487 C 427.133 287.853, 419.425 290.532, 412 293.441 C 383.478 304.616, 349.288 314.201, 324.742 317.905 C 294.465 322.473, 285.891 323.040, 263 321.985 C 237.977 320.832, 224.594 318.588, 198 311.084 C 159.260 300.153, 139.005 291.767, 115.441 276.905 C 107.373 271.815, 104.537 270.553, 100.386 270.204 C 95.900 269.828, 95.070 270.062, 93.636 272.110" stroke="none" fill="#00ff37cc" fill-rule="evenodd"/></svg>