<svg xmlns="http://www.w3.org/2000/svg" width="512" height="512" viewBox="0 0 512 512" version="1.1"><path d="M 343.500 72.892 C 335.492 75.227, 329.601 78.353, 316.428 87.255 C 302.130 96.918, 296.235 99.184, 283.887 99.768 C 271.521 100.352, 266.850 99.032, 247.468 89.480 C 238.982 85.298, 229.402 81.357, 225.468 80.430 C 203.009 75.135, 171.703 86.257, 145.355 108.892 C 125.108 126.286, 114.107 146.442, 105.458 181.989 C 102.811 192.872, 102.774 192.942, 98.517 195.437 C 91.863 199.337, 59.628 221.694, 48.410 230.189 C 35.350 240.080, 33 242.873, 33 248.504 C 33 252.013, 33.510 253.256, 35.635 254.927 C 40.674 258.891, 43.266 257.916, 59 246.139 C 66.975 240.170, 85.425 227.216, 100 217.352 C 148.576 184.477, 161.864 176.667, 178.797 171.037 C 205.845 162.043, 225.329 162.589, 260 173.310 C 278.234 178.948, 283.318 180.001, 292.299 179.997 C 301.263 179.993, 317.525 175.792, 346.197 166.075 C 392.265 150.462, 419.602 145.470, 437.781 149.351 C 454.107 152.836, 467.096 162.685, 474.246 177 C 484.908 198.345, 482.799 209.579, 464.840 227.099 C 457.223 234.529, 455 237.302, 455 239.377 C 455 240.851, 459.562 255.881, 465.137 272.778 C 474.468 301.055, 475.312 304.256, 475.739 313 C 476.991 338.653, 464.415 358.466, 434 378.754 C 404.080 398.713, 356.106 414.940, 307.500 421.543 C 291.267 423.749, 253.601 424.587, 238.426 423.080 C 211.724 420.430, 177.582 413.069, 150 404.018 C 107.045 389.921, 79.761 370.790, 67.972 346.500 C 62.784 335.811, 60.964 328.574, 60.296 315.985 C 59.840 307.384, 60.109 304.015, 61.773 297.485 C 63.585 290.373, 76.316 260.176, 83.383 246.232 C 86.791 239.506, 85.491 239.471, 76.142 246.036 C 62.524 255.600, 53.039 267.149, 47.114 281.380 C 41.639 294.533, 40.519 300.222, 40.594 314.500 C 40.653 325.641, 41.051 328.787, 43.378 336.500 C 54.451 373.200, 80.676 397.834, 129.200 417.118 C 143.266 422.708, 162.503 428.318, 187 433.976 C 216.583 440.809, 226.761 442.050, 258.500 442.696 C 296.934 443.477, 322.588 440.577, 357.500 431.504 C 383.264 424.809, 399.971 418.547, 423.500 406.769 C 475.748 380.615, 501.519 343.567, 494.640 304.500 C 493.129 295.914, 486.229 274.161, 478.700 254.241 L 475.200 244.981 480.850 238.725 C 489.821 228.792, 492.798 224.656, 496.182 217.424 C 505.574 197.355, 497.116 168.546, 476 148.682 C 467.871 141.034, 455.512 133.912, 447.935 132.508 C 443.264 131.642, 442.927 131.348, 440.050 125.635 C 429.354 104.396, 397.249 79.074, 373.226 72.930 C 363.840 70.529, 351.656 70.514, 343.500 72.892 M 346.069 92.025 C 343.082 93.100, 335.384 97.544, 328.964 101.902 C 307.764 116.291, 299.490 119.412, 282.500 119.430 C 266.977 119.446, 259.907 117.416, 240.126 107.261 C 220.793 97.336, 216.496 96.273, 205.084 98.593 C 178.008 104.097, 148.791 126.577, 136.065 151.696 C 133.035 157.678, 126.608 174.962, 127.207 175.519 C 127.368 175.669, 130.875 173.769, 135 171.297 C 163.942 153.949, 189.034 146, 214.856 146 C 230.695 146, 242.230 148.054, 265.756 155.063 C 274.965 157.807, 285.030 160.323, 288.121 160.655 C 295.960 161.496, 304.400 159.437, 338.200 148.438 C 376.514 135.971, 401.266 130, 414.631 130 C 417.584 130, 420 129.545, 420 128.989 C 420 127.188, 404.898 112.112, 398.105 107.133 C 388.685 100.227, 378.418 94.380, 371.584 92.029 C 363.903 89.386, 353.412 89.385, 346.069 92.025 M 429.762 197.959 C 430.790 215.990, 423.252 229.338, 408.500 235.607 C 403.510 237.728, 394.004 237.722, 388.143 235.595 C 373.520 230.287, 365 216.707, 365 198.712 C 365 192.799, 364.683 190.900, 363.750 191.234 C 363.063 191.481, 356.540 193.431, 349.255 195.569 C 334.358 199.939, 335.024 199.039, 339.691 208.500 C 351.262 231.959, 384.511 249.913, 412.119 247.610 C 431.103 246.027, 446.566 237.937, 452.712 226.372 C 456.821 218.642, 458.659 209.677, 457.433 203.356 C 456.628 199.206, 455.964 198.247, 452.582 196.358 C 448.142 193.877, 440.692 191.405, 433.884 190.156 L 429.269 189.308 429.762 197.959 M 399.174 195.314 C 397.978 196.587, 397 198.805, 397 200.242 C 397 203.354, 401.144 207, 404.680 207 C 407.645 207, 412 202.835, 412 200 C 412 196.946, 407.614 193, 404.220 193 C 402.512 193, 400.468 193.937, 399.174 195.314 M 250.989 201.389 C 250.983 201.450, 250.854 205.832, 250.702 211.127 C 250.449 219.949, 250.114 221.386, 246.685 228.323 C 240.411 241.018, 231.410 246.989, 217.352 247.781 C 210.182 248.185, 208.541 247.936, 203.677 245.710 C 196.417 242.386, 189.638 236.021, 186.562 229.642 C 183.682 223.666, 181.521 212.341, 182.320 207.413 C 182.978 203.358, 183.588 203.307, 166.612 208.719 C 151.869 213.418, 147 215.605, 147 217.526 C 147 221.757, 152.746 230.913, 159.917 238.108 C 168.231 246.450, 178.523 252.251, 191 255.627 C 200.035 258.072, 221.109 258.131, 229.838 255.735 C 253.853 249.146, 269.469 237.431, 277.884 219.695 C 283.905 207.004, 283.951 207.374, 276.142 205.615 C 269.351 204.084, 251.027 201.006, 250.989 201.389 M 220.347 203.496 C 217.145 204.842, 216 206.668, 216 210.427 C 216 213.664, 219.071 216, 223.329 216 C 230.122 216, 233.413 209.520, 228.750 205.323 C 225.525 202.420, 223.799 202.045, 220.347 203.496 M 303.500 266.654 C 291.251 268.548, 247.427 282.719, 240.413 287.054 C 234.427 290.753, 233.211 296.302, 237.455 300.545 C 241.545 304.636, 246.378 303.920, 271.305 295.525 C 283.512 291.414, 296.728 287.378, 300.674 286.555 C 327.570 280.948, 349.898 285.395, 376.929 301.745 C 386.480 307.522, 390.488 308.143, 394.799 304.516 C 401.711 298.700, 397.326 291.914, 380.401 282.231 C 360.332 270.748, 346.294 266.897, 323 266.483 C 313.925 266.322, 305.150 266.398, 303.500 266.654 M 93.013 323.160 C 88.176 326.492, 87.004 330.184, 89.652 333.752 C 93.995 339.605, 90.393 339.337, 194 341.517 C 303.683 343.826, 352.951 344.927, 399.194 346.105 C 445.311 347.279, 447.170 347.142, 450.984 342.293 C 453.674 338.873, 453.529 334.727, 450.600 331.322 L 448.200 328.532 426.850 327.792 C 415.108 327.386, 369.275 326.344, 325 325.477 C 280.725 324.610, 228.750 323.490, 209.500 322.988 C 190.250 322.486, 156.950 321.778, 135.500 321.416 L 96.500 320.757 93.013 323.160 M 192 358.520 C 164.750 361.971, 147 369.353, 147 377.234 C 147 380.309, 152.674 385, 156.394 385 C 158.144 385, 166.309 383.427, 174.538 381.505 C 197.855 376.059, 206.306 375.469, 241.129 376.857 C 273.452 378.145, 297.083 379.760, 331 383 C 355.714 385.361, 380.499 386.593, 384.262 385.649 C 388.233 384.653, 393 380.167, 393 377.427 C 393 376.109, 391.730 373.610, 390.178 371.873 C 387.508 368.885, 386.816 368.666, 377.428 367.834 C 281.389 359.322, 265.104 358.180, 231 357.562 C 210.333 357.187, 200.643 357.425, 192 358.520" stroke="none" fill="#f9f9f9" fill-rule="evenodd"/></svg>