<svg xmlns="http://www.w3.org/2000/svg" width="512" height="512" viewBox="0 0 512 512" version="1.1"><path d="M 230.792 4.750 C 204.878 38.761, 182.441 100.887, 175.445 158 C 175.141 160.475, 174.476 165.425, 173.967 169 C 172.790 177.251, 172.751 198.058, 173.908 199.886 C 175.084 201.742, 216.746 201.028, 217.918 199.132 C 218.327 198.472, 218.755 195.359, 218.871 192.216 C 219.866 165.235, 229.579 119.055, 241.212 86 C 245.702 73.242, 254.411 54.281, 260.832 43.288 C 266.760 33.138, 278.317 17.912, 287.428 8.250 L 295.208 0 264.809 -0 L 234.411 -0 230.792 4.750 M 500.995 207.348 C 469.508 237.778, 420.154 266.011, 372.500 280.854 C 351.305 287.455, 325.771 292.979, 316.372 292.995 C 311.862 293.002, 311.093 294.523, 312.073 301.500 C 312.537 304.800, 313.220 313.800, 313.592 321.500 C 313.964 329.200, 314.638 336.221, 315.090 337.102 C 315.831 338.546, 316.875 338.571, 325.706 337.359 C 378.538 330.108, 438.005 306.446, 487.500 272.980 C 495.360 267.666, 508.837 256.612, 510.766 253.898 C 511.729 252.542, 511.968 245.558, 511.766 224.656 L 511.500 197.196 500.995 207.348 M 196.500 205.927 C 181.650 206.272, 168.825 206.846, 168 207.202 C 167.175 207.558, 161.915 208.103, 156.311 208.413 C 145.644 209.003, 130.679 211.140, 120.500 213.525 C 97.275 218.968, 91.902 220.500, 75.329 226.404 C 49.585 235.574, 17.249 252.072, 4.250 262.669 L -0 266.134 -0 292.689 C -0 318.332, 0.063 319.197, 1.846 317.872 C 2.861 317.117, 8.823 312.651, 15.096 307.947 C 28.927 297.574, 37.884 292.027, 52.958 284.498 C 93.109 264.443, 148.268 252, 197.023 252 L 211.975 252 214.355 248.250 C 223.719 233.498, 241.526 228.166, 256.486 235.635 C 270.066 242.416, 276.661 255.643, 274.020 270.805 C 272.731 278.209, 271.557 280.808, 266.515 287.413 L 262.943 292.092 264.573 310.203 C 265.855 324.451, 266.102 336.122, 265.733 364.908 C 265.475 385.033, 265.036 402.400, 264.757 403.500 C 264.478 404.600, 263.929 408.650, 263.538 412.500 C 262.938 418.407, 261.622 426.722, 258.472 444.500 C 257.433 450.361, 251.959 471.555, 250.594 475 C 244.114 491.356, 242.280 495.453, 238.413 502.203 C 235.986 506.440, 234 510.378, 234 510.953 C 234 511.654, 242.254 512, 258.987 512 L 283.975 512 287.361 505.250 C 294.501 491.018, 299.035 475.718, 304.919 446 C 308.385 428.498, 311.995 388.703, 311.995 368 C 311.996 340.371, 308.698 296.137, 305.475 280.531 C 301.105 259.374, 291.174 239.409, 278.546 226.391 C 271.719 219.352, 257.366 211.141, 247.500 208.630 C 234.528 205.328, 230.795 205.130, 196.500 205.927 M 179.248 256.706 C 176.688 257.199, 176.796 258.601, 180.102 267.796 C 187.042 287.099, 202.173 304.594, 221.500 315.663 C 232.695 322.075, 239.820 324.543, 252.578 326.430 L 261 327.675 260.937 321.087 C 260.844 311.394, 259.422 298.022, 258.372 296.972 C 257.820 296.420, 255.523 296.640, 252.570 297.529 C 249.882 298.338, 244.467 299, 240.537 299 C 231.587 299, 225.228 296.090, 218.529 288.927 C 211.802 281.735, 209.645 276.316, 209.406 266 C 209.297 261.325, 209.162 257.163, 209.104 256.750 C 208.996 255.975, 183.243 255.937, 179.248 256.706" stroke="none" fill="#ffffff" fill-rule="evenodd"/><path d="M 504 203.500 C 499.903 207.625, 496.775 211, 497.050 211 C 497.325 211, 500.903 207.625, 505 203.500 C 509.097 199.375, 512.225 196, 511.950 196 C 511.675 196, 508.097 199.375, 504 203.500 M 218 198.833 C 218 199.534, 216.103 200.070, 213.250 200.175 L 208.500 200.349 212.886 200.739 C 217.050 201.109, 220.160 199.827, 218.683 198.350 C 218.308 197.974, 218 198.192, 218 198.833 M 218.250 205.689 C 219.213 205.941, 220.787 205.941, 221.750 205.689 C 222.713 205.438, 221.925 205.232, 220 205.232 C 218.075 205.232, 217.287 205.438, 218.250 205.689 M 163.250 207.689 C 164.213 207.941, 165.787 207.941, 166.750 207.689 C 167.713 207.438, 166.925 207.232, 165 207.232 C 163.075 207.232, 162.287 207.438, 163.250 207.689 M 233.703 236.381 C 220.900 241.153, 212.932 252.771, 212.696 267.009 C 212.560 275.207, 215.009 280.590, 222.134 287.753 C 228.972 294.627, 233.836 296.452, 243.388 295.730 C 252.488 295.042, 257.279 292.708, 263.271 286.044 C 268.817 279.874, 271 273.844, 271 264.688 C 271 254.671, 269.402 250.340, 263.525 244.426 C 255.927 236.781, 242.413 233.135, 233.703 236.381 M 274.252 264.500 C 274.263 266.700, 274.468 267.482, 274.707 266.238 C 274.946 264.994, 274.937 263.194, 274.687 262.238 C 274.437 261.282, 274.241 262.300, 274.252 264.500 M 260.252 308.500 C 260.263 310.700, 260.468 311.482, 260.707 310.238 C 260.946 308.994, 260.937 307.194, 260.687 306.238 C 260.437 305.282, 260.241 306.300, 260.252 308.500 M 261.272 321 C 261.272 323.475, 261.467 324.488, 261.706 323.250 C 261.944 322.012, 261.944 319.988, 261.706 318.750 C 261.467 317.512, 261.272 318.525, 261.272 321" stroke="none" fill="#ff3e3b" fill-rule="evenodd"/></svg>