<svg xmlns="http://www.w3.org/2000/svg" width="512" height="512" viewBox="0 0 512 512" version="1.1"><path d="M 251.560 7.583 C 250.076 9.067, 249.955 9.532, 247.425 23.500 C 246.529 28.450, 245.627 32.777, 245.422 33.116 C 245.216 33.454, 238.175 31.147, 229.774 27.989 C 221.373 24.831, 207.525 19.670, 199 16.520 L 183.500 10.792 171.500 13.055 C 156.300 15.921, 153.994 17.005, 154.020 21.276 C 154.037 24.124, 155.826 38.897, 157.571 50.603 L 158.183 54.706 146.341 55.378 C 139.829 55.747, 122.575 56.719, 108 57.537 C 80.051 59.107, 75.610 59.715, 71.252 62.570 C 66.440 65.724, 59.242 73.001, 58.022 75.947 C 56.483 79.661, 57.230 81.038, 66.403 91.397 C 77.609 104.053, 79.666 107.030, 77.946 108.104 C 71.711 111.996, 47.911 125.454, 36.224 131.695 C 22.743 138.894, 21.695 139.673, 17.408 145.681 C 12.372 152.738, 8.584 160.517, 9.478 161.965 C 9.798 162.482, 16.571 167.022, 24.530 172.053 C 32.488 177.084, 39 181.776, 39 182.481 C 39 183.968, 19.601 218.056, 12.100 229.750 C 7.326 237.192, 7 238.108, 7.001 244.100 C 7.001 249.089, 7.635 251.823, 9.875 256.500 C 13.623 264.324, 17.049 267.399, 25.397 270.427 C 29.162 271.793, 32.452 273.119, 32.707 273.374 C 33.283 273.950, 30.485 283.189, 17.904 322.256 C 10.473 345.333, 8.004 354.322, 8.017 358.256 C 8.039 364.806, 10.562 376.994, 12.241 378.658 C 13.224 379.634, 16.990 379.697, 29.443 378.947 C 38.212 378.418, 45.700 378.327, 46.083 378.743 C 46.467 379.159, 44.591 393.675, 41.914 411 C 39.238 428.325, 36.743 446.042, 36.370 450.372 L 35.692 458.244 44.815 467.034 C 53.922 475.809, 59.400 478.995, 62.448 477.289 C 63.280 476.824, 68.694 471.795, 74.480 466.114 C 81.163 459.552, 85.527 455.988, 86.445 456.340 C 87.874 456.889, 99.153 473.269, 108.400 488.226 L 113.177 495.952 125.839 500.137 C 137.335 503.937, 139.653 504.364, 151.035 504.773 C 161.164 505.137, 163.801 504.945, 164.772 503.774 C 165.434 502.978, 167.515 497.253, 169.397 491.053 C 171.279 484.853, 173.197 479.406, 173.660 478.949 C 174.483 478.134, 211.675 492.468, 225.500 498.929 C 231.687 501.820, 234.009 502.310, 245.500 503.144 C 257.865 504.041, 258.579 503.990, 260.111 502.104 C 261.625 500.241, 264 486.345, 264 479.349 C 264 477.690, 264.248 476.085, 264.552 475.782 C 265.492 474.841, 301.784 489.811, 318.868 498.186 L 329.236 503.269 341.368 502.571 C 355.383 501.763, 358.011 500.681, 357.980 495.727 C 357.961 492.641, 356.688 482.281, 355.448 475.126 C 354.866 471.768, 354.879 471.755, 358.181 472.358 C 364.108 473.442, 430.369 476.113, 434.406 475.431 C 437.242 474.952, 439.602 473.487, 442.938 470.135 C 449.741 463.298, 458 453.096, 458 451.529 C 458 450.071, 451.774 442.782, 441.067 431.706 L 434.500 424.912 437 422.953 C 438.375 421.876, 451.146 413.008, 465.381 403.247 C 480.983 392.548, 492.608 383.861, 494.651 381.372 C 501.020 373.616, 506.021 356.922, 502.780 354.233 C 501.105 352.842, 484.769 346.008, 477.268 343.559 L 472.035 341.851 473.423 338.676 C 480.238 323.077, 483.942 315.132, 491.383 300.151 C 498.702 285.415, 500 282.058, 500 277.861 C 500 268.910, 494.902 262.126, 484.649 257.437 C 479.112 254.904, 478.829 254.603, 479.384 251.828 C 479.707 250.214, 485.197 236.656, 491.585 221.697 C 498.820 204.754, 503.805 191.616, 504.806 186.852 C 506.317 179.664, 506.304 178.736, 504.581 171.431 C 503.453 166.645, 501.909 162.818, 500.563 161.472 L 498.377 159.286 483.439 162.600 C 462.223 167.307, 463.435 167.313, 463.820 162.500 C 463.997 160.300, 467.013 143.200, 470.524 124.500 L 476.906 90.500 474.949 86.427 C 472.660 81.661, 456.473 64.073, 451.610 61.068 C 445.895 57.536, 444.888 58.081, 434.672 70.250 C 419.759 88.014, 420.269 87.553, 417.900 85.409 C 416.802 84.416, 414.279 80.880, 412.293 77.551 C 410.307 74.223, 404.775 65.200, 400 57.500 C 395.225 49.800, 389.145 39.941, 386.489 35.591 C 378.655 22.760, 377.083 21.363, 368.939 19.990 C 363.821 19.126, 361.578 19.106, 360.605 19.913 C 359.873 20.520, 355.111 27.294, 350.022 34.966 L 340.771 48.915 335.135 45.298 C 332.036 43.309, 326.350 39.702, 322.500 37.283 C 318.650 34.864, 307.400 27.286, 297.500 20.443 C 287.431 13.483, 278.178 7.803, 276.500 7.550 C 274.850 7.302, 268.878 6.893, 263.228 6.642 C 255.296 6.290, 252.638 6.504, 251.560 7.583 M 271.549 43.217 C 269.383 49.941, 266.602 54.050, 262.160 57.090 C 259.109 59.178, 257.560 59.485, 250.569 59.391 C 243.503 59.295, 238.958 58.219, 214 50.731 C 197.486 45.777, 185.345 42.609, 185.130 43.199 C 184.927 43.759, 185.272 47.431, 185.898 51.359 C 187.593 62.005, 184.586 69.550, 176.382 75.236 C 171.505 78.615, 161.082 80.176, 128 82.482 C 115.075 83.383, 103.042 84.338, 101.261 84.604 L 98.022 85.087 101.929 90.029 C 106.876 96.288, 108.395 100.882, 107.710 107.516 C 106.995 114.446, 104.096 119.865, 98.440 124.844 C 95.886 127.092, 84.167 134.682, 72.398 141.711 C 60.629 148.740, 51 154.721, 51 155.002 C 51 155.282, 52.372 156.119, 54.048 156.861 C 61.516 160.167, 66.162 166.559, 67.434 175.277 C 68.474 182.408, 66.514 189.761, 61.346 198.116 C 58.834 202.177, 52.084 213.786, 46.346 223.914 C 35.872 242.402, 35.401 243.892, 40 244.007 C 40.825 244.027, 43.300 244.866, 45.500 245.871 C 55.005 250.212, 60.408 260.280, 59.781 272.477 C 59.455 278.818, 51.315 306.831, 39 343.998 L 37.178 349.497 44.882 350.597 C 56.522 352.261, 63.399 357.849, 69.005 370.201 C 71.654 376.038, 71.527 381.221, 68.004 411.095 C 66.356 425.068, 65.006 437.287, 65.004 438.248 C 65.001 439.680, 65.859 439.382, 69.750 436.600 C 81.114 428.473, 89.300 426.790, 98.125 430.768 C 103.629 433.249, 106.208 436.133, 113.536 448 C 125.005 466.573, 125.177 466.742, 136.500 470.564 C 142 472.421, 146.838 473.954, 147.250 473.970 C 147.662 473.987, 148 471.953, 148 469.450 C 148 461.303, 152.652 455.575, 161.037 453.401 C 165.355 452.280, 167.454 452.299, 174.463 453.521 C 180.942 454.651, 229.665 468.632, 237.198 471.523 C 238.855 472.158, 239.962 469.548, 239.986 464.946 C 240.008 460.895, 245.394 453.350, 249.909 451.047 C 252.140 449.908, 255.861 449, 258.294 449 C 262.969 449, 320.867 467.557, 325.344 470.490 L 327.784 472.089 328.146 464.112 C 328.576 454.654, 330.273 451.670, 337.199 448.193 C 341.790 445.889, 341.811 445.888, 362.647 446.991 C 389.640 448.420, 418.001 449.572, 418 449.239 C 418 449.095, 416.273 446.395, 414.162 443.239 C 405.739 430.646, 405.236 423.025, 412.138 412.605 C 414.546 408.970, 421.246 403.379, 440.159 389.222 C 453.830 378.989, 464.675 370.307, 464.258 369.929 C 463.841 369.551, 461.840 368.711, 459.812 368.064 C 454.028 366.216, 448.355 360.029, 446.456 353.496 C 444.965 348.367, 444.962 347.100, 446.426 337.859 C 447.925 328.393, 448.663 326.521, 459.009 305.937 C 465.054 293.910, 470 283.601, 470 283.027 C 470 282.453, 468.197 281.262, 465.992 280.380 C 460.447 278.161, 453.386 270.040, 451.510 263.721 C 448.744 254.408, 449.827 248.954, 458.004 231 C 460.885 224.675, 465.466 214.100, 468.184 207.500 C 470.902 200.900, 473.364 194.953, 473.656 194.285 C 474.047 193.391, 472.379 193.107, 467.344 193.211 C 458.546 193.393, 453.692 191.931, 447.532 187.244 C 441.491 182.648, 436.931 175.571, 436.278 169.776 C 435.975 167.089, 437.309 157.199, 439.824 143.484 C 445.380 113.181, 447.703 99.036, 447.205 98.538 C 446.973 98.306, 443.551 100.548, 439.601 103.522 C 435.651 106.495, 430.764 109.618, 428.742 110.464 C 420.700 113.823, 407.661 111.399, 400.895 105.286 C 397.241 101.985, 381.618 79.332, 372.595 64.250 C 370.538 60.813, 368.487 58, 368.036 58 C 367.585 58, 366.931 59.139, 366.582 60.531 C 365.565 64.582, 357.069 72.645, 352.500 73.895 C 346.720 75.476, 346.482 75.437, 331.456 70.467 C 319.849 66.629, 315.894 64.736, 305.625 58.106 C 298.956 53.800, 289.900 48.114, 285.500 45.470 C 281.100 42.827, 276.544 40.050, 275.376 39.299 C 273.353 38, 273.170 38.188, 271.549 43.217 M 230.251 84.545 C 219.226 87.514, 212.477 92.395, 208.578 100.220 C 206.266 104.858, 206 106.556, 206 116.651 C 206 127.642, 208.565 182.386, 211.522 234.500 C 212.334 248.800, 212.998 264.865, 212.999 270.201 C 213.001 286.984, 216.054 294.699, 225.052 300.653 C 229.793 303.791, 237.870 304.858, 243.304 303.065 C 248.237 301.437, 255.475 294.770, 257.322 290.152 C 258.176 288.018, 260.068 279.348, 261.526 270.886 C 264.330 254.604, 273.006 213.571, 285.462 157.671 C 294.075 119.020, 294.592 113.588, 290.452 105.279 C 285.374 95.090, 273.983 87.635, 258.792 84.560 C 249.380 82.655, 237.293 82.649, 230.251 84.545 M 229.442 113.250 C 229.706 114.487, 230.406 124.275, 230.998 135 C 233.650 183.077, 238.272 245.606, 239.246 246.579 C 239.677 247.010, 246.077 219.648, 255.053 179 C 258.272 164.425, 262.696 144.421, 264.886 134.546 C 267.075 124.672, 268.645 116.234, 268.374 115.796 C 268.103 115.358, 266.658 115, 265.162 115 C 263.666 115, 256.155 114.107, 248.471 113.016 C 229.917 110.380, 228.833 110.394, 229.442 113.250 M 221.446 338.227 C 215.976 344.402, 209.222 351.940, 206.438 354.977 C 200.498 361.458, 190.207 373.765, 176.735 390.500 C 171.422 397.100, 165.482 404.343, 163.535 406.596 L 159.996 410.691 173.748 413.928 C 181.312 415.708, 195.825 419.445, 206 422.233 C 216.175 425.020, 225.625 427.488, 227 427.717 C 228.375 427.946, 243.675 425.424, 261 422.113 C 278.325 418.801, 294.863 415.788, 297.750 415.417 C 300.637 415.046, 302.992 414.463, 302.983 414.121 C 302.919 411.768, 234.013 327, 232.165 327 C 231.740 327, 226.916 332.052, 221.446 338.227 M 224.901 368.226 C 221.389 372.777, 214.575 381.450, 209.759 387.500 L 201.002 398.500 231.227 399.190 C 247.851 399.570, 261.563 399.771, 261.697 399.637 C 261.831 399.502, 257.877 394.242, 252.911 387.946 C 247.944 381.651, 241.160 372.900, 237.836 368.500 C 234.511 364.100, 231.677 360.377, 231.539 360.226 C 231.400 360.076, 228.413 363.676, 224.901 368.226" stroke="none" fill="#fdfeff" fill-rule="evenodd"/></svg>