<svg xmlns="http://www.w3.org/2000/svg" width="512" height="512" viewBox="0 0 512 512" version="1.1"><path d="M 277.382 7.364 C 279.470 22.401, 279.567 21.466, 275.613 24.482 C 268.457 29.939, 261.086 31.034, 245.322 28.981 C 236.025 27.770, 217.709 23.892, 217 22.984 C 216.725 22.632, 210.570 21.085, 203.322 19.547 L 190.143 16.750 180.822 19.501 C 175.695 21.014, 170.082 22.870, 168.349 23.626 C 166.616 24.382, 164.328 25, 163.266 25 C 162.203 25, 161.060 25.274, 160.726 25.608 C 159.957 26.376, 161.809 29.562, 164.832 32.673 C 166.824 34.724, 167.063 35.685, 166.470 39.286 C 164.782 49.540, 161.424 53.442, 149.500 59 C 145.100 61.051, 137.631 64.579, 132.903 66.839 C 124.354 70.927, 101.773 80.443, 97 81.970 C 95.625 82.410, 92.250 83.907, 89.500 85.297 C 86.750 86.686, 82.025 88.616, 79 89.586 C 72.224 91.757, 67.771 94.489, 62.249 99.863 C 59.911 102.138, 57.709 104, 57.357 104 C 56.374 104, 46 113.052, 46 113.909 C 46 114.324, 49.164 116.397, 53.032 118.518 C 56.900 120.638, 60.555 122.964, 61.155 123.687 C 61.755 124.410, 62.302 128.714, 62.371 133.251 C 62.489 141.055, 62.288 141.877, 58.640 148.500 C 56.520 152.350, 54.383 155.650, 53.892 155.833 C 53.402 156.017, 53 156.567, 53 157.055 C 53 157.996, 18.606 201.167, 11.410 209.259 C 7.730 213.398, 7.024 214.964, 5.997 221.259 C 5.348 225.242, 4.029 232.220, 3.067 236.766 L 1.316 245.031 4.408 244.492 C 6.109 244.195, 9.750 243.540, 12.500 243.037 C 17.128 242.191, 17.761 242.326, 21 244.856 C 22.925 246.360, 25.723 250.045, 27.218 253.045 C 29.546 257.717, 29.940 259.766, 29.968 267.326 C 29.999 275.897, 24.946 310.178, 23.015 314.500 C 22.523 315.600, 21.358 320.932, 20.425 326.348 C 18.817 335.680, 18.821 336.638, 20.497 344.621 C 21.469 349.254, 22.616 353.263, 23.045 353.528 C 23.475 353.793, 24.142 355.921, 24.528 358.255 C 24.915 360.590, 25.414 362.812, 25.639 363.192 C 25.863 363.573, 29.029 361.628, 32.673 358.869 C 39.147 353.969, 39.417 353.869, 44.400 354.529 C 47.205 354.901, 51.723 356.397, 54.440 357.853 C 59.011 360.302, 59.807 361.334, 65.109 371.671 C 68.812 378.889, 72.280 387.735, 74.910 396.671 C 81.846 420.232, 83.165 424.356, 85.240 428.969 C 86.424 431.602, 91.926 438.368, 98.625 445.431 C 104.881 452.027, 110 458.041, 110 458.795 C 110 461.613, 112.508 459.154, 116.992 451.938 L 121.616 444.500 128.058 444.568 C 134.668 444.637, 137.430 445.782, 164.924 459.840 C 170.972 462.933, 172.196 464.117, 186.262 480.500 C 192.872 488.200, 199.456 495.253, 200.891 496.173 C 202.326 497.093, 208.262 499.011, 214.083 500.433 C 219.904 501.856, 226.519 503.916, 228.785 505.010 C 231.050 506.105, 233.343 507, 233.879 507 C 234.775 507, 234.636 501.299, 233.519 492.219 C 232.996 487.961, 237.324 482.819, 242.818 481.173 C 250.114 478.987, 265.827 480.388, 283.500 484.800 C 287.900 485.899, 293.300 487.108, 295.500 487.488 C 297.700 487.868, 299.950 488.527, 300.500 488.953 C 301.475 489.708, 312.620 492.433, 318.380 493.326 C 321.209 493.764, 334.525 490.560, 336.513 488.962 C 337.071 488.514, 339.771 487.625, 342.513 486.985 C 345.256 486.345, 348.043 485.659, 348.706 485.459 C 349.493 485.223, 348.711 483.101, 346.456 479.357 C 342.405 472.629, 342.334 471.854, 345.101 464.461 C 346.877 459.712, 347.995 458.344, 352.351 455.584 C 360.966 450.125, 384.742 438.905, 397.500 434.276 C 401.350 432.880, 408.221 429.996, 412.769 427.868 C 417.317 425.741, 421.322 424, 421.669 424 C 422.016 424, 426.013 422.589, 430.551 420.865 C 437.772 418.123, 440.178 416.498, 449.806 407.865 C 455.857 402.439, 461.301 398, 461.904 398 C 465.009 398, 462.217 395.487, 456.084 392.762 L 449.168 389.689 448.012 383.562 C 446.539 375.755, 448.575 366.026, 453.372 357.957 C 458.371 349.549, 472.188 332.195, 487.366 315.259 C 494.865 306.892, 501 299.671, 501 299.212 C 501 298.753, 501.806 297.505, 502.792 296.439 C 503.909 295.230, 505.463 289.982, 506.921 282.500 C 508.207 275.900, 509.473 269.938, 509.736 269.250 C 510.345 267.656, 506.744 267.629, 498.415 269.164 C 490.990 270.532, 490.061 270.054, 486.557 263.063 C 482.137 254.244, 481.478 249.267, 482.868 235.223 C 484.437 219.368, 487.736 197.159, 488.916 194.500 C 489.404 193.400, 490.530 187.749, 491.418 181.943 C 492.897 172.270, 492.898 170.762, 491.441 163.943 C 490.566 159.849, 489.455 155.600, 488.971 154.500 C 488.488 153.400, 487.550 150.588, 486.888 148.250 C 486.225 145.913, 485.386 144, 485.022 144 C 484.658 144, 483.382 145.125, 482.187 146.500 C 480.991 147.875, 479.519 149, 478.914 149 C 478.310 149, 476.671 149.900, 475.273 151 C 472.203 153.415, 470.917 153.462, 464.013 151.411 C 459.901 150.190, 457.370 148.509, 453.081 144.153 C 443.853 134.779, 439.967 125.254, 430.576 89 C 429.080 83.225, 427.326 77.514, 426.678 76.309 C 426.030 75.103, 420.006 68.483, 413.291 61.596 L 401.083 49.075 398.856 52.287 C 397.632 54.054, 394.871 57.637, 392.722 60.250 C 389.294 64.416, 388.341 65, 384.966 65 C 379.674 65, 369.220 61.088, 351.500 52.477 L 336.500 45.187 328 33.973 C 310.734 11.193, 313.260 13.451, 302.248 10.943 C 296.910 9.727, 291.859 8.368, 291.022 7.923 C 290.185 7.478, 286.644 6.240, 283.154 5.171 L 276.807 3.228 277.382 7.364 M 235.500 41.161 C 223.529 42.506, 184.469 51.715, 181.522 53.886 C 180.960 54.301, 176.225 56.311, 171 58.353 C 158.127 63.384, 150.458 67.347, 139.270 74.750 C 134.075 78.188, 129.467 81, 129.030 81 C 128.593 81, 126.435 82.800, 124.235 85 C 122.035 87.200, 119.793 89, 119.253 89 C 118.047 89, 93.063 114.093, 91.714 116.658 C 91.181 117.671, 88.732 120.587, 86.271 123.138 C 83.810 125.688, 81.280 128.702, 80.648 129.834 C 80.017 130.967, 76.768 135.855, 73.430 140.697 C 65.689 151.923, 61.737 159.075, 57.924 168.761 C 56.248 173.017, 54.035 178.300, 53.006 180.500 C 50.325 186.231, 44.376 209.691, 42.482 222 C 40.183 236.944, 39.436 263.035, 40.954 275.387 C 43.152 293.279, 49.983 321.290, 54.456 330.755 C 55.169 332.265, 57.201 336.875, 58.971 341 C 60.741 345.125, 63.084 350.503, 64.179 352.950 C 67.636 360.683, 80.368 379.151, 88.838 388.721 C 93.327 393.793, 97 398.375, 97 398.903 C 97 399.432, 98.463 400.883, 100.250 402.128 C 102.037 403.373, 106.875 407.599, 111 411.517 C 121.628 421.614, 130.534 428.888, 139.095 434.461 C 143.168 437.113, 148.115 440.355, 150.089 441.666 C 154.549 444.627, 176.925 454.367, 183 455.992 C 185.475 456.654, 187.950 457.554, 188.500 457.993 C 190.506 459.593, 203.753 463.128, 216.720 465.523 C 237.564 469.372, 255.416 470.582, 270.663 469.176 C 289.368 467.452, 318.679 461.082, 322.614 457.886 C 323.227 457.388, 326.590 456.041, 330.087 454.893 C 341.296 451.214, 357.487 443.371, 368.141 436.460 C 402.076 414.448, 437.577 375.069, 451.495 344 C 454.082 338.225, 457.305 331.151, 458.658 328.279 C 463.874 317.207, 470.140 287.652, 472.047 265.127 C 472.542 259.282, 473.235 252.548, 473.587 250.163 C 473.984 247.472, 473.804 245.404, 473.113 244.713 C 472.501 244.101, 472 241.468, 472 238.861 C 472 232.584, 467.668 207.853, 464.535 196.249 C 463.162 191.161, 460.724 184.186, 459.118 180.749 C 457.512 177.312, 454.411 170.139, 452.226 164.809 C 450.041 159.480, 445.384 150.570, 441.877 145.011 C 438.370 139.451, 434.600 133.412, 433.500 131.590 C 428.620 123.509, 404.988 99.457, 393.602 90.982 C 389.808 88.158, 383.733 83.475, 380.102 80.576 C 367.747 70.710, 356.984 64.293, 343 58.456 C 339.425 56.964, 334.644 54.915, 332.376 53.904 C 325.679 50.918, 308.414 46.405, 295 44.135 C 271.880 40.223, 252.475 39.253, 235.500 41.161 M 243.363 75.250 C 239.489 78.130, 203.209 114.420, 197.403 121.223 L 193 126.380 193 136.631 C 193 142.386, 193.439 147.153, 194 147.500 C 194.550 147.840, 195 150.990, 195 154.500 C 195 158.010, 194.550 161.160, 194 161.500 C 193.450 161.840, 193 163.415, 193 165 C 193 166.585, 193.450 168.160, 194 168.500 C 195.359 169.340, 195.359 220.660, 194 221.500 C 193.450 221.840, 193 223.190, 193 224.500 C 193 225.810, 193.450 227.160, 194 227.500 C 194.550 227.840, 195 229.156, 195 230.424 C 195 232.695, 207.501 246.962, 209.554 247.033 C 210.074 247.051, 218.825 255.132, 229 264.991 L 247.500 282.916 261.337 282.958 L 275.175 283 287.288 271.750 C 293.950 265.563, 303.259 256.900, 307.976 252.500 C 312.692 248.100, 319.802 241.622, 323.776 238.104 L 331 231.709 331 178.094 L 331 124.479 313.250 106.937 C 303.488 97.289, 291.573 85.706, 286.773 81.198 L 278.047 73 262.218 73 C 247.366 73, 246.202 73.139, 243.363 75.250 M 244.325 105.326 C 240.378 108.722, 234.245 114.425, 230.695 118 C 227.145 121.575, 222.499 125.929, 220.370 127.676 L 216.500 130.851 216.500 176.676 L 216.500 222.500 222.447 228 C 225.718 231.025, 234.014 238.787, 240.884 245.250 L 253.374 257 262.026 257 L 270.679 257 282.117 246.250 C 288.407 240.338, 297.030 232.280, 301.277 228.345 L 309 221.189 309 177.244 L 309 133.298 291.098 116.149 L 273.196 99 262.348 99.076 L 251.500 99.152 244.325 105.326 M 224.548 342.603 L 200 367.028 200 378.272 L 200 389.515 224.258 413.758 L 248.515 438 260.068 438 L 271.621 438 295.811 413.568 L 320 389.137 319.975 378.318 L 319.950 367.500 295.435 342.780 L 270.921 318.060 260.009 318.119 L 249.097 318.178 224.548 342.603 M 238.750 356.854 L 222 373.695 222 378.639 L 222 383.584 238.517 400.292 C 260.708 422.740, 257.786 422.743, 280.261 400.239 L 297 383.479 297 377.978 L 297 372.477 280.739 356.239 C 264.550 340.072, 264.458 340, 259.989 340.006 C 255.513 340.013, 255.450 340.063, 238.750 356.854" stroke="none" fill="#ffd90066" fill-rule="evenodd"/></svg>