<svg xmlns="http://www.w3.org/2000/svg" width="460" height="460" viewBox="0 0 460 460" version="1.1"><path d="M 235.500 13.289 C 227.250 17.395, 191.885 34.925, 156.911 52.246 C 84.846 87.936, 88.500 85.536, 88.500 97.177 C 88.500 102.385, 88.960 104.474, 90.592 106.677 C 93.935 111.188, 98.824 114, 103.325 114 C 107.966 114, 102.282 116.662, 184.500 75.987 C 218.050 59.390, 249.629 43.831, 254.676 41.413 C 265.939 36.016, 268.263 33.228, 268.822 24.449 C 269.263 17.532, 267.997 14.229, 263.136 9.608 C 260.890 7.473, 258.837 6.599, 255.297 6.270 C 250.919 5.863, 249.189 6.477, 235.500 13.289 M 31.500 81.573 C 24.469 85.230, 20.997 90.735, 21.004 98.218 C 21.006 100.606, 21.818 103.827, 22.841 105.500 C 23.849 107.150, 35.210 118.617, 48.087 130.983 C 60.964 143.348, 83.128 164.723, 97.339 178.483 C 111.551 192.242, 124.151 204.047, 125.339 204.715 C 128.727 206.619, 136.065 206.258, 139.759 204.005 C 146.754 199.741, 149.125 190.021, 145.077 182.210 C 143.354 178.884, 88.081 123.189, 57.668 94.134 C 42.952 80.073, 38.495 77.934, 31.500 81.573 M 172.913 103.931 C 165.288 105.421, 159.074 112.963, 159.022 120.790 C 158.997 124.463, 161.794 130.602, 164.680 133.212 C 170.086 138.100, 168.093 137.999, 259.218 138.015 C 354.033 138.031, 351.175 137.848, 364.397 144.757 C 377.695 151.706, 390.531 167.149, 396.182 183 L 398.500 189.500 398.789 272.500 C 399.046 346.494, 398.900 356.304, 397.435 362.908 C 392.949 383.147, 380.270 399.333, 361.728 408.493 C 346.279 416.126, 346.153 416.136, 268.844 415.796 L 201.500 415.500 192.956 412.440 C 173.850 405.598, 159.500 391.092, 152.948 372 C 150.899 366.029, 150.659 362.896, 149.990 333.500 C 149.176 297.688, 149.893 283.100, 152.887 274.581 C 158.470 258.696, 170.657 246.362, 186.985 240.071 C 193.398 237.600, 194.033 237.555, 227.500 237.187 C 266.674 236.756, 271.607 237.275, 281.050 242.822 C 296.413 251.846, 304.783 272.152, 299.180 286.803 C 295.079 297.527, 286.931 305.334, 276 309.016 C 268.166 311.654, 264.202 311.345, 251.399 307.098 C 240.742 303.563, 236.781 304.019, 231.397 309.403 C 222.005 318.795, 225.829 332.617, 239.749 339.586 C 271.680 355.574, 312.826 341.405, 329.622 308.636 C 349.555 269.747, 327.817 218.955, 285 204.373 C 279.938 202.649, 275.837 202.500, 233.500 202.500 C 181.873 202.500, 181.948 202.492, 166.241 209.979 C 156.048 214.839, 150.706 218.472, 142.573 226.080 C 131.882 236.081, 123.662 249.298, 118.367 265 L 115.500 273.500 115.501 323 L 115.502 372.500 118.263 381.307 C 123.560 398.203, 131.028 409.961, 144.839 423.152 C 161.122 438.705, 179.509 447.664, 200 450.029 C 206.341 450.761, 232.940 451.003, 280 450.755 C 349.811 450.388, 350.578 450.362, 358.500 448.106 C 388.322 439.612, 415.369 416.209, 425.975 389.722 C 434.035 369.591, 434.152 367.787, 433.785 269 L 433.468 183.500 430.667 174.505 C 420.766 142.702, 398.977 118.512, 370.796 108.038 C 357.103 102.948, 358.710 103.022, 264.500 103.130 C 216.100 103.185, 174.886 103.546, 172.913 103.931" stroke="none" fill="#fbfbfb" fill-rule="evenodd"/></svg>