<svg xmlns="http://www.w3.org/2000/svg" width="192" height="192" viewBox="0 0 192 192" version="1.1"><path d="M 11.388 1.980 C 7.369 3.604, 4.761 8.103, 5.257 12.553 C 6.232 21.281, 28.295 68.655, 39.436 85.941 C 44.145 93.247, 44.201 93.428, 42.540 95.941 C 41.609 97.348, 32.063 116.251, 21.325 137.947 C -0.398 181.839, -0.316 181.574, 6.109 187.364 C 8.873 189.856, 9.867 190.162, 13.755 189.724 C 16.236 189.444, 19.028 188.393, 20.032 187.360 C 21.026 186.337, 23.720 181.225, 26.018 176 C 33.092 159.918, 60.071 106, 61.043 106 C 61.548 106, 64.332 107.507, 67.231 109.350 C 85.539 120.988, 115.625 134.770, 158.485 151.154 C 178.256 158.711, 179.689 159.110, 183.239 158.046 C 187.785 156.684, 190.455 152.968, 190.455 148 C 190.455 141.387, 188.435 139.752, 173.822 134.536 C 148.896 125.639, 120.544 113.863, 101.500 104.496 C 91.050 99.356, 81.620 94.492, 80.544 93.688 C 78.698 92.308, 79.152 91.856, 88.544 85.717 C 101.091 77.516, 118.954 67.532, 139.500 57.236 C 169.677 42.114, 186.502 32.954, 188.750 30.422 C 192.132 26.614, 191.836 20.682, 188.077 16.923 C 183.542 12.388, 179.844 12.909, 167.180 19.869 C 161.306 23.096, 145.250 31.401, 131.500 38.323 C 102.879 52.732, 86.550 61.903, 71.321 72.120 L 60.647 79.282 58.749 76.939 C 52.923 69.744, 40.375 44.727, 30.578 20.776 C 25.334 7.956, 23.797 5.138, 21.017 3.250 C 17.550 0.895, 14.928 0.550, 11.388 1.980" stroke="none" fill="#ffffff" fill-rule="evenodd"/></svg>