<svg xmlns="http://www.w3.org/2000/svg" width="462" height="462" viewBox="0 0 462 462" version="1.1"><path d="M 188.500 13.167 C 179.557 18.113, 177.696 28.607, 184.609 35.103 L 187.160 37.500 278.830 38.015 C 369.958 38.527, 370.538 38.543, 377 40.729 C 393.196 46.209, 405.377 59.050, 410.458 76 C 411.957 80.999, 412.104 94.427, 412.080 223.493 C 412.062 320.465, 412.390 366.734, 413.114 369.423 C 413.697 371.588, 415.533 374.629, 417.193 376.180 C 419.647 378.472, 421.121 379, 425.071 379 C 429.076 379, 430.549 378.457, 433.451 375.909 C 435.556 374.061, 437.394 371.250, 438.021 368.920 C 438.738 366.259, 438.968 319.603, 438.748 221.762 L 438.425 78.500 436.178 70 C 432.735 56.973, 426.317 44.775, 418.328 36.069 C 410.871 27.944, 400.007 20.269, 391.413 17.053 C 378.307 12.150, 374.929 11.998, 279.619 12.030 C 216.429 12.052, 189.918 12.383, 188.500 13.167 M 89.335 72.008 C 63.009 74.846, 40.646 92.593, 32.282 117.285 L 29.500 125.500 29.337 254 C 29.248 324.675, 29.549 387.916, 30.006 394.536 C 30.656 403.957, 31.435 408.084, 33.590 413.536 C 41.720 434.101, 56.222 447.116, 77.011 452.503 C 82.153 453.835, 97.537 454.035, 194.801 454.035 C 305.859 454.034, 306.728 454.019, 313.589 451.920 C 324.307 448.639, 331.788 444.167, 339.476 436.442 C 347.337 428.544, 352.961 419.691, 356.276 410 L 358.500 403.500 358.790 269.500 C 358.995 174.508, 358.756 133.609, 357.968 129.005 C 353.325 101.880, 334.748 81.210, 308.300 73.741 C 300.509 71.540, 300.383 71.538, 198.500 71.387 C 142.400 71.304, 93.276 71.584, 89.335 72.008 M 83.973 99.277 C 72.086 103.330, 62.509 112.424, 57.642 124.281 L 55.500 129.500 55.201 260 C 54.985 354.461, 55.216 392.157, 56.039 396.500 C 58.408 408.998, 67.348 420.523, 78.706 425.723 L 84.348 428.306 193.424 428.129 C 302.246 427.953, 302.514 427.947, 308.375 425.807 C 316.470 422.852, 324.955 414.867, 329.232 406.180 L 332.500 399.543 332.796 267.021 C 333.128 118.833, 333.528 127.769, 326.037 116.179 C 320.200 107.147, 310.284 100.476, 299.201 98.124 C 295.471 97.333, 263.785 97.008, 192.201 97.026 L 90.500 97.052 83.973 99.277" stroke="none" fill="#fff" fill-rule="evenodd"/></svg>
