<svg xmlns="http://www.w3.org/2000/svg" width="225" height="225" viewBox="0 0 225 225" version="1.1"><path d="M 113.106 7.709 C 107.616 13.281, 104.701 17.183, 103.046 21.175 C 100.790 26.620, 100.507 26.877, 93.986 29.436 C 90.284 30.888, 84.777 33.569, 81.749 35.392 L 76.243 38.707 68.872 36.777 C 59.745 34.387, 47.734 34.865, 37.608 38.020 L 30.716 40.168 31.278 49.334 C 31.929 59.943, 35.463 72.188, 39.887 79.162 L 42.845 83.825 40.938 89.952 C 39.889 93.321, 38.581 98.871, 38.032 102.284 C 37.482 105.697, 36.616 108.628, 36.108 108.797 C 35.600 108.967, 33.134 110.463, 30.628 112.123 C 23.881 116.592, 16.601 125.078, 12.495 133.261 L 8.862 140.500 15.388 146.701 C 22.749 153.695, 35.609 160.573, 43.292 161.626 C 47.463 162.198, 48.233 162.722, 50.442 166.491 C 51.804 168.815, 54.940 173.199, 57.412 176.233 C 61.785 181.601, 61.877 181.857, 60.786 185.626 C 59.257 190.907, 59.509 205.501, 61.225 211 L 62.629 215.500 69.670 215.309 C 77.765 215.090, 87.289 212.241, 94.337 207.932 C 99.121 205.007, 99.229 204.991, 104.149 206.452 C 108.898 207.862, 128.557 210.414, 130.550 209.878 C 131.072 209.738, 133.436 211.512, 135.802 213.821 C 140.414 218.321, 147.064 222.103, 153.467 223.866 C 157.151 224.881, 157.637 224.764, 160.273 222.239 C 164.018 218.650, 168.736 208.856, 170.012 202.021 C 170.939 197.055, 171.635 196.001, 177.438 190.763 C 180.960 187.584, 185.447 182.796, 187.410 180.122 C 190.591 175.789, 191.497 175.191, 195.740 174.620 C 200.441 173.987, 208.723 170.581, 212.385 167.774 C 214.215 166.372, 214.218 166.171, 212.482 160.915 C 210.433 154.714, 208.760 151.741, 204.932 147.500 C 202.466 144.768, 202.178 143.606, 201.719 134.500 C 201.412 128.425, 200.393 121.920, 199.122 117.928 C 194.974 104.899, 184.118 91.927, 172.097 85.633 C 161.547 80.110, 155.367 78.730, 143.128 79.165 C 133.692 79.501, 131.737 79.902, 125.698 82.743 C 117.213 86.736, 108.397 95.315, 104.678 103.200 C 103.199 106.334, 101.482 112.184, 100.863 116.200 C 97.725 136.551, 111.396 154.359, 131.253 155.784 C 141.041 156.487, 150.235 152.660, 148.655 148.542 C 148.152 147.233, 147.594 147.232, 143.917 148.529 C 132.749 152.470, 120.488 147.423, 114.695 136.500 C 111.698 130.848, 111.799 121.282, 114.930 114.221 C 123.681 94.489, 150.404 91.267, 167.019 107.940 C 181.970 122.942, 180.846 148.778, 164.496 165.919 C 150.824 180.252, 131.781 184.340, 111.069 177.387 C 84.951 168.620, 67.964 145.328, 68.017 118.356 C 68.058 97.583, 76.167 77.539, 89.936 64.177 C 100.075 54.337, 120.256 46.992, 137 47.048 C 170.751 47.161, 200.005 69, 210.943 102.250 C 213.296 109.405, 216 111.449, 216 106.072 C 216 88.865, 207.548 66.838, 195.851 53.563 C 191.676 48.825, 191.498 48.360, 191.459 42.063 C 191.436 38.453, 190.613 33.138, 189.629 30.250 L 187.839 25 182.340 25 C 178.792 25, 174.600 25.896, 170.523 27.527 L 164.206 30.055 156.677 27.527 C 152.536 26.137, 148.102 24.993, 146.824 24.985 C 143.468 24.963, 142.575 24.120, 139.548 18.119 C 136.531 12.138, 129.029 4.101, 124.070 1.536 L 120.836 -0.136 113.106 7.709" stroke="none" fill="#ffffff" fill-rule="evenodd"/></svg>
