<svg xmlns="http://www.w3.org/2000/svg" width="512" height="512" viewBox="0 0 512 512" version="1.1"><path d="M 338.500 37.657 C 334.045 39.998, 328.946 45.071, 327.381 48.718 C 325.209 53.779, 325.638 62.803, 328.272 67.453 C 330.220 70.893, 336.959 77.106, 339.872 78.148 C 341.019 78.558, 341.908 135.002, 340.767 135.001 C 339.980 135, 316.459 114.346, 285 86.029 C 256.457 60.337, 256.026 59.982, 249.612 56.920 C 238.894 51.804, 229.128 52.091, 217.012 57.878 C 210.650 60.917, 208.643 62.855, 160.443 112.500 C 21.975 255.119, 9.389 268.274, 6.750 273.149 C -0.624 286.769, 6.799 303.948, 21.365 306.972 C 29.727 308.708, 33.787 306.497, 47.983 292.476 C 54.373 286.164, 59.897 281, 60.258 281 C 60.619 281, 62.698 286.738, 64.879 293.750 C 67.059 300.762, 78.073 335.975, 89.354 372 C 100.634 408.025, 111.521 443.125, 113.547 450 C 115.572 456.875, 118.120 464.251, 119.208 466.392 C 122.091 472.065, 129.179 479.228, 135.226 482.578 L 140.500 485.500 248.166 485.767 C 354.606 486.032, 355.894 486.012, 361.313 483.984 C 367.415 481.701, 375.003 475.543, 378.442 470.084 C 379.684 468.113, 381.723 463.575, 382.974 460 C 385.624 452.425, 390.464 439.344, 427.746 339 C 435.409 318.375, 442.544 299.025, 443.601 296 C 444.659 292.975, 446.037 290.500, 446.665 290.500 C 447.293 290.500, 453.940 296.125, 461.437 303 C 478.177 318.352, 481.410 320.300, 489.255 319.765 C 505.066 318.685, 513.380 301.517, 505.697 285.814 C 502.748 279.785, 501.358 278.390, 471.515 251.500 C 447.902 230.224, 431.411 215.250, 417 202.001 C 388.531 175.827, 383.616 171.364, 381.397 169.667 L 379 167.833 379 123.119 L 379 78.405 384.190 74.953 C 398.074 65.717, 396.818 45.560, 381.885 37.941 C 378.519 36.224, 375.970 36.005, 359.790 36.040 C 345.130 36.072, 340.905 36.393, 338.500 37.657 M 232 100.831 C 232 101.288, 212.538 121.431, 188.750 145.592 C 132.800 202.421, 108 228.031, 108 228.978 C 108 229.397, 169.425 229.743, 244.500 229.748 C 319.575 229.753, 381 229.423, 381 229.015 C 381 227.883, 375.578 223.063, 318.546 173.500 C 289.434 148.200, 258.614 121.317, 250.057 113.759 C 235.887 101.244, 232 98.461, 232 100.831 M 101.395 271.250 C 102.268 275.647, 120.753 335.727, 139.624 395.500 C 148.132 422.450, 155.328 445.288, 155.614 446.250 C 156.086 447.837, 157.901 448, 175.067 448 L 194 448 194 445.250 C 194 443.738, 190.618 424.500, 186.485 402.500 C 182.352 380.500, 177.842 355.750, 176.462 347.500 C 175.082 339.250, 173.460 330.215, 172.856 327.421 C 170.717 317.523, 175.914 307.431, 185.131 303.587 C 190.527 301.337, 316.711 301.110, 322 303.342 C 329.251 306.401, 333.755 311.859, 335.427 319.613 C 336.143 322.932, 332.629 342.547, 319.436 408.889 C 315.346 429.453, 312 446.676, 312 447.164 C 312 447.653, 319.227 447.927, 328.148 447.775 L 344.296 447.500 350.163 432 C 362.036 400.638, 398.249 301.895, 404.929 282.670 C 407.064 276.526, 409.126 270.712, 409.512 269.750 C 410.179 268.088, 402.447 268, 255.482 268 L 100.750 268 101.395 271.250 M 214.226 339.839 C 213.061 340.578, 218.095 370.245, 231.306 440.500 L 232.623 447.500 252.730 447.500 C 263.789 447.500, 273.062 447.275, 273.336 446.999 C 273.996 446.336, 296 342.412, 296 339.957 C 296 338.778, 216.079 338.663, 214.226 339.839 M 264.189 383.039 C 258.022 388.784, 265.332 398.465, 272.887 394.558 C 277.521 392.162, 278.310 387.935, 274.927 383.635 C 272.343 380.349, 267.372 380.073, 264.189 383.039" stroke="none" fill="#ffffff" fill-rule="evenodd"/></svg>