<svg xmlns="http://www.w3.org/2000/svg" width="512" height="512" viewBox="0 0 512 512" version="1.1"><path d="M 221.500 15.595 C 208.336 17.383, 204.178 18.289, 187.333 23.036 C 146.888 34.433, 106.903 58.423, 78.141 88.548 C 23.274 146.015, -0.151 223.902, 14.125 301.401 C 29.605 385.435, 90.900 456.625, 173.527 486.535 C 214.099 501.222, 261.476 504.195, 306 494.848 C 338.817 487.960, 375.436 470.463, 403.835 448.102 C 451.065 410.915, 481.721 360.089, 493.724 299.073 C 496.212 286.424, 496.398 283.628, 496.445 258 C 496.491 233.610, 496.240 229.087, 494.228 218.002 C 489.055 189.511, 482.373 168.974, 470.982 146.551 C 451.978 109.141, 427.491 81.390, 392.086 57.134 C 381.434 49.837, 379.577 49.206, 374.229 51.070 C 367.061 53.569, 368.919 57.858, 381.961 68.921 C 421.241 102.243, 449.414 149.120, 459.537 198 C 464.057 219.827, 465.246 232.784, 464.720 254.500 C 464.147 278.208, 461.320 295.419, 454.865 314.500 C 442.416 351.297, 416.831 387.561, 387.302 410.264 C 363.250 428.756, 330.022 444.956, 301.614 452.041 C 234.327 468.822, 162.075 447.849, 112.111 397.032 C 72.070 356.308, 51.825 302.371, 55.864 247.176 C 59.668 195.204, 75.438 156.862, 107.261 122.212 C 124.210 103.758, 140.864 90.955, 162 80.128 C 174.821 73.560, 199.036 64, 202.851 64 C 203.828 64, 208.648 67.044, 213.563 70.764 C 223.163 78.029, 238.394 87.379, 246.500 90.983 C 261.110 97.478, 279.893 102.239, 296.088 103.552 C 312.905 104.916, 336.071 100.464, 348.636 93.453 C 358.793 87.786, 367.990 76.029, 365.464 71.941 C 365.045 71.264, 364.059 72.019, 362.923 73.887 C 357.677 82.512, 345.638 86.544, 325.500 86.419 C 305.099 86.292, 290.710 82.818, 271.687 73.424 C 263.763 69.511, 252.313 61.491, 249.068 57.581 C 245.837 53.689, 250.916 49.976, 266 45.201 C 287.355 38.440, 308.726 35.387, 328 36.343 C 339.462 36.911, 353.180 38.691, 360.399 40.546 C 365.806 41.936, 362.110 38.921, 353.612 35.008 C 333.957 25.960, 306.401 18.269, 283.837 15.535 C 268.294 13.651, 235.572 13.682, 221.500 15.595 M 241.500 20.364 C 229.071 26.011, 232.211 44, 245.626 44 C 250.763 44, 255.442 41.912, 257.054 38.900 C 258.684 35.853, 258.411 28.276, 256.569 25.466 C 253.168 20.275, 246.594 18.049, 241.500 20.364" stroke="none" fill="#ffffff" fill-rule="evenodd"/></svg>