<svg xmlns="http://www.w3.org/2000/svg" width="452" height="452" viewBox="0 0 452 452" version="1.1"><path d="M 123 22 L 123 44 116.119 44 L 109.238 44 77.163 75.075 C 59.521 92.166, 44.826 106.973, 44.507 107.979 C 44.187 108.985, 44.138 110.976, 44.397 112.404 L 44.868 115 22.434 115 L 0 115 0 123 L 0 131 19.750 131.014 C 30.613 131.021, 40.513 131.299, 41.750 131.630 C 43.970 132.225, 44 132.459, 44 148.970 L 44 165.707 36.349 166.353 C 32.141 166.709, 22.241 167, 14.349 167 L 0 167 0 178.120 L 0 189.239 21.750 188.870 L 43.500 188.500 43.771 208.750 L 44.041 229 22.021 229 L 0 229 0 240 L 0 251 22 251 L 44 251 44 277 L 44 303 22 303 L 0 303 0 312.500 L 0 322 22 322 L 44 322 44.034 336.250 L 44.067 350.500 74.784 381.792 L 105.500 413.084 116.750 413.042 L 128 413 128 432.500 L 128 452 138.500 452 L 149 452 149.008 432.250 L 149.017 412.500 168.008 412.295 L 187 412.089 187 432.045 L 187 452 197.500 452 L 208 452 208 432.574 L 208 413.147 228.750 412.824 C 240.162 412.646, 249.725 412.649, 250 412.832 C 250.275 413.015, 250.654 421.902, 250.842 432.582 L 251.184 452 261.592 452 L 272 452 272.008 432.250 L 272.017 412.500 292.008 412.192 L 312 411.884 312 431.942 L 312 452 322 452 L 332 452 332 432 L 332 412 338.024 412 L 344.048 412 362.774 393.752 C 373.073 383.716, 386.788 370.352, 393.250 364.055 L 405 352.606 405 333.303 L 405 314 428.440 314 L 451.879 314 452.272 317.750 C 452.956 324.294, 453.022 307.932, 452.346 299.250 L 451.704 291 428.352 291 L 405 291 405 272.643 L 405 254.287 428.250 253.558 C 441.038 253.157, 451.725 252.606, 452 252.334 C 452.275 252.062, 452.629 246.363, 452.787 239.669 C 452.960 232.294, 452.721 228.023, 452.180 228.828 C 451.499 229.838, 445.754 230.293, 428.143 230.731 L 405 231.307 405 213.654 L 405 196 428.358 196 L 451.715 196 452.358 189.853 C 452.711 186.473, 452.924 179.610, 452.832 174.603 C 452.739 169.596, 452.487 167.188, 452.272 169.250 L 451.879 173 436.190 173.131 C 427.560 173.204, 417.012 173.411, 412.750 173.593 L 405 173.923 405 160.462 L 405 147 428.372 147 L 451.744 147 452.472 130.934 C 452.873 122.097, 452.930 114.597, 452.600 114.267 C 452.270 113.937, 452 115.992, 452 118.833 L 452 124 428.500 124 L 405 124 405 115.893 L 405 107.786 387.788 90.143 C 378.322 80.439, 364.295 66.088, 356.617 58.250 L 342.658 44 329.329 44 L 316 44 316 22 L 316 0 305.500 0 L 295 0 295 22 L 295 44 275.500 44 L 256 44 256 22 L 256 0 245.500 0 L 235 0 235 22.020 L 235 44.041 214.268 43.770 C 194.331 43.510, 193.533 43.423, 193.439 41.500 C 193.386 40.400, 193.265 30.613, 193.171 19.750 L 193 0 182.500 0 L 172 0 172 22 L 172 44 155 44 L 138 44 138 22 L 138 0 130.500 0 L 123 0 123 22 M 92.720 91.084 L 66 117.168 66 228.949 L 66 340.730 73.633 348.615 C 77.831 352.952, 89.368 364.712, 99.270 374.750 L 117.275 393 223.888 392.967 L 330.500 392.935 357.250 367.382 L 384 341.829 384 230.091 L 384 118.353 357.911 91.676 L 331.822 65 225.631 65 L 119.439 65 92.720 91.084 M 185.270 97.190 C 177.130 105.060, 158.106 123.200, 142.993 137.500 C 106.164 172.347, 82.580 195.118, 82.134 196.259 C 81.728 197.297, 89.940 206.031, 94.259 209.154 L 97.018 211.149 111.259 197.738 C 119.092 190.362, 137.200 173.363, 151.500 159.963 C 182.978 130.466, 215 99.472, 215 98.503 C 215 97.520, 206.989 88.703, 203.195 85.511 L 200.068 82.880 185.270 97.190 M 148 102.083 C 148 107.629, 148.386 112.017, 148.857 111.833 C 149.328 111.650, 152.139 109.307, 155.103 106.626 L 160.492 101.752 154.996 96.887 C 151.973 94.211, 149.162 92.017, 148.750 92.011 C 148.338 92.005, 148 96.537, 148 102.083 M 120.500 102.763 C 115 108.118, 106.112 116.689, 100.750 121.809 L 91 131.119 91 143.500 C 91 150.310, 91.349 156.098, 91.776 156.362 C 92.203 156.625, 101.428 148.495, 112.276 138.295 L 132 119.749 132 106.374 C 132 99.018, 131.662 93.006, 131.250 93.013 C 130.838 93.019, 126 97.407, 120.500 102.763 M 0.349 123 C 0.349 127.675, 0.522 129.588, 0.732 127.250 C 0.943 124.912, 0.943 121.087, 0.732 118.750 C 0.522 116.412, 0.349 118.325, 0.349 123 M 212 130.044 C 212 130.619, 223.588 143.062, 237.750 157.696 C 251.912 172.330, 269.170 190.191, 276.100 197.387 L 288.700 210.471 292.600 207.097 C 300.521 200.244, 372 130.732, 372 129.881 C 372 129.380, 337.462 129, 292 129 C 237.064 129, 212 129.327, 212 130.044 M 169.832 149.647 C 162.499 156.603, 149.188 169.059, 140.250 177.326 C 131.313 185.593, 124 192.853, 124 193.458 C 124 195.071, 136.610 207.300, 137.828 206.868 C 139.053 206.433, 179.203 168.476, 189.973 157.571 L 197.446 150.004 191.002 143.502 C 187.458 139.926, 184.244 137, 183.861 137 C 183.477 137, 177.164 142.691, 169.832 149.647 M 275.183 166.674 L 288.856 180.347 292.178 177.693 C 294.005 176.233, 300.675 170.092, 307 164.047 L 318.500 153.057 290.005 153.028 L 261.509 153 275.183 166.674 M 0.378 178 C 0.378 184.325, 0.541 186.912, 0.739 183.750 C 0.937 180.588, 0.937 175.412, 0.739 172.250 C 0.541 169.088, 0.378 171.675, 0.378 178 M 0.378 240 C 0.378 246.325, 0.541 248.912, 0.739 245.750 C 0.937 242.588, 0.937 237.412, 0.739 234.250 C 0.541 231.088, 0.378 233.675, 0.378 240 M 105.175 271.785 L 98.851 276.500 103.675 277.139 C 106.329 277.490, 109.737 278.101, 111.250 278.497 L 114 279.217 114 273.108 C 114 268.870, 113.617 267.011, 112.750 267.035 C 112.063 267.054, 108.654 269.192, 105.175 271.785 M 334 276.122 C 327.125 280.037, 303.896 293.752, 282.379 306.598 C 246.513 328.013, 243.208 330.211, 242.644 333.030 C 242.032 336.092, 242.936 354, 243.702 354 C 244.521 354, 266.060 341.343, 284.500 330.027 C 294.950 323.613, 313.175 312.596, 325 305.544 C 336.825 298.491, 346.831 292.221, 347.235 291.611 C 348.109 290.289, 348.033 275.673, 347.132 271.752 L 346.500 269.003 334 276.122 M 276 281.344 C 265.275 287.531, 243.675 300.276, 228 309.666 C 212.325 319.056, 197.591 327.810, 195.258 329.119 L 191.015 331.500 191.008 343.832 L 191 356.163 194.250 354.208 C 196.037 353.132, 204.250 348.298, 212.500 343.465 C 220.750 338.632, 237.175 328.765, 249 321.540 C 260.825 314.314, 276.223 305.049, 283.218 300.951 L 295.936 293.500 295.968 281.750 C 295.986 275.288, 295.887 270.022, 295.750 270.048 C 295.613 270.074, 286.725 275.158, 276 281.344 M 171.500 284.718 C 158.850 292.193, 135.675 305.815, 120 314.990 L 91.500 331.671 91.219 343.835 C 91.065 350.526, 91.200 356, 91.519 356 C 92.799 356, 100.437 351.547, 146.750 323.800 L 195 294.892 195 282.946 C 195 276.376, 194.887 271.029, 194.750 271.064 C 194.613 271.099, 184.150 277.244, 171.500 284.718 M 117.250 287.222 L 91 302.365 91 314.290 C 91 324.621, 91.206 326.135, 92.541 325.622 C 93.389 325.297, 101.377 320.808, 110.291 315.647 C 145.380 295.333, 144.848 295.679, 145.524 292.751 C 146.482 288.599, 145.664 271.994, 144.503 272.039 C 143.951 272.061, 131.688 278.893, 117.250 287.222 M 230.500 279.220 C 209.125 291.729, 147.608 328.197, 143.750 330.647 L 140 333.028 140 344.621 C 140 355.250, 140.145 356.158, 141.750 355.545 C 144.780 354.386, 165.749 342.226, 186 329.885 C 196.725 323.349, 214.050 312.912, 224.500 306.692 L 243.500 295.383 243.782 283.691 C 243.937 277.261, 243.712 272.045, 243.282 272.099 C 242.852 272.153, 237.100 275.358, 230.500 279.220 M 340.500 301.341 C 337.750 303.123, 325.712 310.371, 313.750 317.448 L 292 330.315 292 342.157 C 292 348.671, 292.337 353.998, 292.750 353.995 C 293.163 353.992, 305.650 346.679, 320.500 337.745 L 347.500 321.500 347.782 309.750 C 347.999 300.695, 347.770 298.012, 346.782 298.051 C 346.077 298.078, 343.250 299.559, 340.500 301.341 M 0.365 312.500 C 0.368 318, 0.536 320.122, 0.738 317.216 C 0.941 314.311, 0.939 309.811, 0.734 307.216 C 0.528 304.622, 0.363 307, 0.365 312.500 M 331 349.015 C 331 358.381, 330.043 358.323, 340.292 349.572 C 346.662 344.134, 346.556 343.690, 338.622 342.544 C 335.939 342.156, 333.127 341.602, 332.372 341.313 C 331.278 340.893, 331 342.452, 331 349.015" stroke="none" fill="#ffffff" fill-rule="evenodd"/></svg>