<svg xmlns="http://www.w3.org/2000/svg" width="512" height="512" viewBox="0 0 512 512" version="1.1"><path d="M 191 37.872 L 191 66.879 149.750 67.240 C 110.485 67.583, 108.115 67.709, 100.500 69.868 C 64.403 80.101, 33.431 110.274, 25.010 143.410 C 23.045 151.144, 23.002 154.218, 23.100 281.410 C 23.155 352.959, 23.492 412.493, 23.850 413.707 C 24.441 415.712, 35.910 426.732, 46.812 435.768 L 51.124 439.342 62.062 428.438 L 73 417.534 73.012 287.517 C 73.025 147.849, 72.836 153.232, 78.094 142.256 C 81.324 135.512, 92.194 124.941, 99.895 121.053 C 110.255 115.823, 115.742 115.204, 155 114.834 L 190.500 114.500 190.770 135.250 C 190.919 146.662, 191.163 156, 191.313 156 C 191.464 156, 207.092 152.390, 226.043 147.979 C 264.971 138.916, 344.519 120.968, 383.500 112.453 L 409.500 106.773 426.750 89.647 C 436.238 80.228, 444 72.229, 444 71.872 C 444 71.515, 442.313 70.916, 440.250 70.541 C 438.188 70.166, 409.275 63.110, 376 54.860 C 342.725 46.611, 288.275 33.130, 255 24.902 C 221.725 16.675, 193.713 9.701, 192.750 9.404 C 191.111 8.899, 191 10.708, 191 37.872 M 459.250 103.933 L 447 116.582 447 237.581 C 447 369.658, 447.211 364.596, 441.281 374.840 C 437.590 381.218, 427.647 390.966, 421 394.724 C 417.975 396.434, 412.575 398.874, 409 400.146 C 402.683 402.394, 401.353 402.469, 361.750 402.799 L 321 403.140 321 386.701 L 321 370.263 312.750 372 C 281.804 378.517, 154.516 407.540, 135 412.529 C 123.119 415.567, 121.152 416.372, 118.599 419.240 C 117.004 421.033, 108.540 430.022, 99.790 439.216 C 85.508 454.221, 84.117 455.987, 86.190 456.473 C 87.461 456.770, 112.125 462.161, 141 468.451 C 253.496 492.959, 294.543 502.173, 310.635 506.528 C 315.659 507.888, 320.047 509, 320.385 509 C 320.723 509, 321 495.950, 321 480 L 321 451 352.250 450.977 C 369.438 450.964, 388.675 450.786, 395 450.582 C 439.323 449.147, 479.867 418.186, 494.499 374.598 L 497 367.147 497 242.008 L 497 116.869 484.750 104.054 C 478.012 97.006, 472.275 91.249, 472 91.262 C 471.725 91.274, 465.988 96.976, 459.250 103.933" stroke="none" fill="#ffffff" fill-rule="evenodd"/></svg>