<svg xmlns="http://www.w3.org/2000/svg" width="512" height="512" viewBox="0 0 512 512" version="1.1"><path d="M 420.250 14.689 C 421.212 14.941, 422.788 14.941, 423.750 14.689 C 424.712 14.438, 423.925 14.232, 422 14.232 C 420.075 14.232, 419.288 14.438, 420.250 14.689 M 427.750 31.706 C 428.988 31.944, 431.012 31.944, 432.250 31.706 C 433.488 31.467, 432.475 31.272, 430 31.272 C 427.525 31.272, 426.512 31.467, 427.750 31.706 M 389.250 32.689 C 390.212 32.941, 391.788 32.941, 392.750 32.689 C 393.712 32.438, 392.925 32.232, 391 32.232 C 389.075 32.232, 388.288 32.438, 389.250 32.689 M 203.232 43 C 203.232 44.925, 203.438 45.712, 203.689 44.750 C 203.941 43.788, 203.941 42.212, 203.689 41.250 C 203.438 40.288, 203.232 41.075, 203.232 43 M 479 44.500 C 480.866 46.425, 482.617 48, 482.892 48 C 483.167 48, 481.866 46.425, 480 44.500 C 478.134 42.575, 476.383 41, 476.108 41 C 475.833 41, 477.134 42.575, 479 44.500 M 405.669 54.143 C 405.027 59.569, 406.115 63.749, 407.340 60.558 C 407.720 59.566, 407.572 59.147, 406.972 59.518 C 406.315 59.923, 406.193 58.207, 406.621 54.569 C 406.981 51.506, 407.051 49, 406.777 49 C 406.503 49, 406.004 51.314, 405.669 54.143 M 203.252 54.500 C 203.263 56.700, 203.468 57.482, 203.707 56.238 C 203.946 54.994, 203.937 53.194, 203.687 52.238 C 203.437 51.282, 203.241 52.300, 203.252 54.500 M 453.232 54 C 453.232 55.925, 453.438 56.712, 453.689 55.750 C 453.941 54.788, 453.941 53.212, 453.689 52.250 C 453.438 51.288, 453.232 52.075, 453.232 54 M 455.272 57 C 455.272 59.475, 455.467 60.487, 455.706 59.250 C 455.944 58.013, 455.944 55.987, 455.706 54.750 C 455.467 53.513, 455.272 54.525, 455.272 57 M 451.625 64.125 C 450.791 68.293, 451.599 69.101, 452.500 65 C 452.880 63.271, 452.982 61.649, 452.727 61.394 C 452.472 61.139, 451.976 62.368, 451.625 64.125 M 410.225 67.500 C 410.409 68.841, 410.005 69.390, 409 69.168 C 407.993 68.945, 408.246 69.630, 409.768 71.251 C 412.607 74.275, 415.977 74.737, 413.254 71.728 C 412.289 70.662, 411.698 69.725, 411.940 69.645 C 412.181 69.565, 411.833 68.600, 411.165 67.500 L 409.950 65.500 410.225 67.500 M 342.328 73.500 C 342.333 77.350, 342.513 78.802, 342.730 76.728 C 342.946 74.653, 342.943 71.503, 342.722 69.728 C 342.501 67.952, 342.324 69.650, 342.328 73.500 M 345.300 73 C 345.300 76.025, 345.487 77.263, 345.716 75.750 C 345.945 74.237, 345.945 71.763, 345.716 70.250 C 345.487 68.737, 345.300 69.975, 345.300 73 M 392 70.833 C 392 71.475, 390.988 72.052, 389.750 72.116 C 387.898 72.211, 387.828 72.317, 389.356 72.710 C 391.351 73.223, 393.811 71.478, 392.683 70.350 C 392.308 69.974, 392 70.192, 392 70.833 M 486 70.313 C 486 70.485, 487.462 71.948, 489.250 73.563 L 492.500 76.500 489.563 73.250 C 486.825 70.221, 486 69.540, 486 70.313 M 456.383 72.189 C 456.115 72.622, 456.668 72.681, 457.612 72.319 C 458.838 71.848, 459.104 72.022, 458.543 72.930 C 457.947 73.895, 458.207 73.968, 459.629 73.235 C 460.658 72.704, 462.175 72.042, 463 71.762 C 463.825 71.483, 462.783 71.287, 460.685 71.327 C 458.587 71.367, 456.651 71.755, 456.383 72.189 M 450.666 75.250 C 450.154 77.285, 450.224 77.334, 451.399 75.766 C 452.113 74.812, 453.063 74.362, 453.509 74.766 C 453.955 75.169, 453.997 74.938, 453.601 74.250 C 452.503 72.342, 451.295 72.754, 450.666 75.250 M 422 77 C 418.768 77.680, 420.332 78.541, 423.894 78.042 C 424.660 77.934, 425.560 78.260, 425.894 78.765 C 426.227 79.270, 428.750 79.395, 431.500 79.044 C 436.380 78.421, 436.422 78.387, 433.272 77.628 C 431.497 77.201, 429.078 77.158, 427.897 77.533 C 426.449 77.992, 425.972 77.854, 426.434 77.107 C 427.174 75.910, 427.179 75.910, 422 77 M 436 76.954 C 436.825 77.513, 438.363 77.976, 439.417 77.985 C 441.975 78.005, 441.177 77.433, 437.500 76.610 C 435.309 76.120, 434.905 76.213, 436 76.954 M 383.250 82.596 C 384.212 83.730, 385.007 85.297, 385.015 86.079 C 385.028 87.240, 385.186 87.256, 385.877 86.165 C 386.343 85.430, 387.073 84.829, 387.500 84.829 C 387.927 84.829, 388.657 85.430, 389.123 86.165 C 389.641 86.981, 389.975 87.059, 389.985 86.365 C 389.993 85.741, 388.875 84.493, 387.500 83.592 C 386.125 82.691, 385 82.244, 385 82.599 C 385 82.954, 384.212 82.635, 383.250 81.890 C 381.583 80.599, 381.583 80.633, 383.250 82.596 M 392 88.883 C 392 89.369, 392.926 90.009, 394.057 90.305 C 395.745 90.746, 395.903 90.588, 394.935 89.421 C 393.614 87.830, 392 87.535, 392 88.883 M 450.114 90.500 C 450.090 91.050, 450.674 92.588, 451.410 93.918 L 452.750 96.336 452.750 93.686 C 452.750 92.229, 452.395 91.256, 451.960 91.524 C 451.526 91.793, 450.943 91.447, 450.664 90.756 C 450.386 90.065, 450.138 89.950, 450.114 90.500 M 397.409 93.899 C 398.355 94.945, 400.001 96.029, 401.066 96.307 C 403.842 97.033, 402.508 95.400, 398.824 93.562 C 395.762 92.035, 395.729 92.043, 397.409 93.899 M 484.695 97.352 C 484.325 98.316, 484.429 98.853, 484.926 98.546 C 485.423 98.239, 486.010 98.530, 486.231 99.193 C 486.480 99.941, 486.888 99.734, 487.305 98.648 C 487.675 97.684, 487.571 97.147, 487.074 97.454 C 486.577 97.761, 485.990 97.470, 485.769 96.807 C 485.520 96.059, 485.112 96.266, 484.695 97.352 M 393 99.178 C 393 100.045, 393.639 101.285, 394.420 101.933 C 395.548 102.870, 395.792 102.790, 395.610 101.546 C 395.483 100.684, 394.844 99.444, 394.190 98.790 C 393.270 97.870, 393 97.958, 393 99.178 M 405 98.690 C 405 99.240, 405.900 100.505, 407 101.500 C 408.100 102.495, 409 102.860, 409 102.310 C 409 101.760, 408.100 100.495, 407 99.500 C 405.900 98.505, 405 98.140, 405 98.690 M 456.383 99.403 C 456.702 101.574, 462.090 107.062, 463.218 106.365 C 463.720 106.055, 463.366 104.957, 462.431 103.924 C 461.497 102.892, 460.394 102.257, 459.980 102.513 C 459.182 103.006, 456.266 99.994, 456.833 99.263 C 457.017 99.027, 456.938 98.605, 456.658 98.325 C 456.379 98.045, 456.255 98.531, 456.383 99.403 M 139.776 102.733 C 142.128 102.945, 145.728 102.942, 147.776 102.727 C 149.824 102.512, 147.900 102.339, 143.500 102.343 C 139.100 102.346, 137.424 102.522, 139.776 102.733 M 410.995 103.778 C 411.603 105.031, 412.489 105.816, 412.965 105.522 C 413.440 105.228, 414.005 105.514, 414.219 106.156 C 414.433 106.799, 415.484 107.453, 416.554 107.609 C 418.210 107.850, 418.130 107.613, 416.015 106.014 C 414.648 104.982, 413.343 104.324, 413.114 104.553 C 412.885 104.782, 412.066 104.188, 411.294 103.234 C 410.037 101.682, 410.006 101.739, 410.995 103.778 M 347.070 114.250 C 347.122 118.106, 347.369 118.969, 348 117.500 C 349.203 114.700, 349.203 109, 348 109 C 347.450 109, 347.032 111.362, 347.070 114.250 M 421.658 110.744 C 421.303 111.319, 421.796 112.131, 422.756 112.546 C 425.587 113.773, 427.052 113.893, 426.405 112.846 C 426.072 112.307, 425.552 112.115, 425.249 112.418 C 424.946 112.721, 424.159 112.233, 423.502 111.333 C 422.746 110.300, 422.067 110.083, 421.658 110.744 M 241.570 111.886 C 241.255 112.396, 241.897 112.578, 242.997 112.291 C 244.097 112.003, 246.099 112.490, 247.446 113.373 C 248.802 114.261, 250.150 114.567, 250.464 114.058 C 250.777 113.552, 250.479 112.796, 249.803 112.378 C 247.887 111.194, 242.208 110.854, 241.570 111.886 M 473 112.861 C 473 113.335, 474.125 113.508, 475.500 113.245 C 476.875 112.982, 478 112.594, 478 112.383 C 478 112.173, 476.875 112, 475.500 112 C 474.125 112, 473 112.388, 473 112.861 M 410 116.755 C 410 117.305, 410.675 118.315, 411.500 119 C 412.337 119.694, 413 119.803, 413 119.245 C 413 118.695, 412.325 117.685, 411.500 117 C 410.663 116.306, 410 116.197, 410 116.755 M 474.336 123 C 474.336 127.125, 474.513 128.813, 474.728 126.750 C 474.944 124.688, 474.944 121.313, 474.728 119.250 C 474.513 117.188, 474.336 118.875, 474.336 123 M 253.166 117.876 C 252.099 118.553, 252.159 118.847, 253.468 119.349 C 254.555 119.766, 254.864 119.588, 254.388 118.819 C 253.910 118.045, 254.225 117.872, 255.336 118.299 C 256.251 118.650, 257 118.501, 257 117.969 C 257 116.782, 254.970 116.733, 253.166 117.876 M 432.427 118.521 C 434.482 120.076, 435.630 119.829, 434.541 118.067 C 434.179 117.480, 433.121 117.014, 432.191 117.032 C 430.706 117.060, 430.735 117.241, 432.427 118.521 M 325.250 120.689 C 326.212 120.941, 327.788 120.941, 328.750 120.689 C 329.712 120.438, 328.925 120.232, 327 120.232 C 325.075 120.232, 324.288 120.438, 325.250 120.689 M 418 121.863 C 418 122.360, 418.788 123.037, 419.750 123.367 C 420.712 123.697, 422.512 124.410, 423.750 124.951 C 427.541 126.609, 426.247 125.167, 422 123 C 419.800 121.878, 418 121.366, 418 121.863 M 439.631 121.788 C 439.145 122.575, 441.595 124.363, 442.750 124.065 C 443.313 123.919, 442.951 123.007, 442.362 123.085 C 442.011 123.132, 441.392 122.634, 440.987 121.979 C 440.519 121.221, 440.024 121.152, 439.631 121.788 M 21.946 126.750 L 18.500 130.500 22.250 127.054 C 24.313 125.158, 26 123.471, 26 123.304 C 26 122.540, 25.154 123.260, 21.946 126.750 M 291.250 123.728 C 293.313 123.944, 296.688 123.944, 298.750 123.728 C 300.813 123.513, 299.125 123.336, 295 123.336 C 290.875 123.336, 289.188 123.513, 291.250 123.728 M 348.745 127.750 C 347.255 129.308, 345.639 132.631, 345.016 135.416 C 344.412 138.119, 343.181 141.577, 342.282 143.100 C 340.895 145.447, 340.853 146.118, 342.002 147.503 C 343.140 148.874, 344.563 149.024, 350.830 148.437 L 358.302 147.737 357.570 150.118 C 355.932 155.451, 355.822 157.081, 357.005 158.506 C 358.866 160.748, 362.361 160.309, 365 157.500 C 366.292 156.125, 367.783 155, 368.314 155 C 369.934 155, 371.935 158.349, 371.968 161.115 C 372.015 164.994, 375.582 169, 378.989 169 C 381.091 169, 382.588 168.023, 384.736 165.250 C 391.691 156.269, 393.659 150.851, 390.418 149.607 C 389.548 149.273, 385.268 149, 380.906 149 L 372.975 149 369.603 143.750 C 365.499 137.361, 354.288 125, 352.598 125 C 351.925 125, 350.191 126.237, 348.745 127.750 M 445 128.024 C 442.684 128.600, 442.757 128.687, 446 129.204 C 450.082 129.856, 450.163 129.833, 448.649 128.451 C 448.017 127.874, 446.375 127.682, 445 128.024 M 459.234 129.294 C 460.188 130.066, 460.676 130.991, 460.318 131.349 C 459.960 131.707, 460.192 132, 460.833 132 C 462.799 132, 462.130 130.133, 459.750 128.980 C 457.731 128.002, 457.678 128.034, 459.234 129.294 M 34.946 145.750 L 31.500 149.500 35.250 146.054 C 37.313 144.158, 39 142.471, 39 142.304 C 39 141.540, 38.154 142.260, 34.946 145.750 M 374 145.110 C 372.714 146.035, 372.737 146.113, 374.167 145.657 C 375.099 145.361, 376.078 145.761, 376.386 146.563 C 376.689 147.353, 377.514 147.964, 378.219 147.921 C 379.222 147.859, 379.229 147.733, 378.250 147.338 C 377.563 147.060, 377 146.196, 377 145.417 C 377 143.733, 376.049 143.636, 374 145.110 M 387.610 146.426 C 387.994 147.427, 389.359 147.742, 392.188 147.483 C 394.406 147.280, 396.508 146.800, 396.860 146.416 C 397.212 146.033, 396.225 146.025, 394.666 146.399 C 392.808 146.846, 392.054 146.722, 392.475 146.040 C 393.360 144.609, 391.673 144.727, 390.200 146.200 C 389.267 147.133, 389 147.133, 389 146.200 C 389 145.540, 388.564 145, 388.031 145 C 387.499 145, 387.309 145.642, 387.610 146.426 M 307.065 153.422 C 306.378 154.250, 306.285 155.058, 306.838 155.400 C 307.353 155.718, 308.296 155.348, 308.935 154.578 C 309.622 153.750, 309.715 152.942, 309.162 152.600 C 308.647 152.282, 307.704 152.652, 307.065 153.422 M 372.330 169.750 C 372.271 171.262, 372.436 171.689, 372.695 170.697 C 373.093 169.177, 373.429 169.096, 374.834 170.180 C 376.019 171.095, 375.951 170.822, 374.595 169.233 C 373.547 168.005, 372.633 167, 372.563 167 C 372.493 167, 372.388 168.238, 372.330 169.750 M 438.882 190.750 C 438.816 191.162, 438.835 191.893, 438.922 192.373 C 439.010 192.853, 438.388 192.979, 437.541 192.654 C 436.693 192.329, 436 192.532, 436 193.105 C 436 194.865, 439.294 193.614, 439.567 191.750 C 439.708 190.787, 439.638 190, 439.412 190 C 439.185 190, 438.947 190.338, 438.882 190.750 M 375.370 203 C 375.370 208.775, 375.535 211.137, 375.737 208.250 C 375.939 205.363, 375.939 200.637, 375.737 197.750 C 375.535 194.863, 375.370 197.225, 375.370 203 M 14.232 202 C 14.232 203.925, 14.438 204.713, 14.689 203.750 C 14.941 202.787, 14.941 201.213, 14.689 200.250 C 14.438 199.287, 14.232 200.075, 14.232 202 M 436.128 209.636 C 437.317 210.902, 438.736 211.663, 439.280 211.327 C 439.825 210.990, 439.295 210.193, 438.104 209.556 C 436.912 208.918, 436.176 208.157, 436.469 207.865 C 436.761 207.572, 436.317 207.333, 435.482 207.333 C 434.312 207.333, 434.460 207.861, 436.128 209.636 M 445.630 213.789 C 445.317 214.295, 446.098 215.683, 447.364 216.872 C 449.134 218.535, 449.667 218.685, 449.667 217.522 C 449.667 215.598, 446.387 212.565, 445.630 213.789 M 14.402 229 C 14.402 237.525, 14.556 241.012, 14.743 236.750 C 14.931 232.488, 14.931 225.512, 14.743 221.250 C 14.556 216.988, 14.402 220.475, 14.402 229 M 241.946 225.750 L 238.500 229.500 242.250 226.054 C 245.740 222.846, 246.460 222, 245.696 222 C 245.529 222, 243.842 223.688, 241.946 225.750 M 415.762 225.707 C 417.006 225.946, 418.806 225.937, 419.762 225.687 C 420.718 225.437, 419.700 225.241, 417.500 225.252 C 415.300 225.263, 414.518 225.468, 415.762 225.707 M 401.750 226.706 C 402.988 226.944, 405.012 226.944, 406.250 226.706 C 407.488 226.467, 406.475 226.272, 404 226.272 C 401.525 226.272, 400.512 226.467, 401.750 226.706 M 496.750 250.737 C 499.637 250.939, 504.363 250.939, 507.250 250.737 C 510.137 250.535, 507.775 250.370, 502 250.370 C 496.225 250.370, 493.863 250.535, 496.750 250.737 M 476.776 251.733 C 479.128 251.945, 482.728 251.942, 484.776 251.727 C 486.824 251.512, 484.900 251.339, 480.500 251.343 C 476.100 251.346, 474.424 251.522, 476.776 251.733 M 15.360 270 C 15.360 275.225, 15.529 277.363, 15.735 274.750 C 15.941 272.137, 15.941 267.863, 15.735 265.250 C 15.529 262.637, 15.360 264.775, 15.360 270 M 413.462 275.250 L 408.500 280.500 413.750 275.538 C 416.637 272.808, 419 270.446, 419 270.288 C 419 269.541, 418.074 270.372, 413.462 275.250 M 501.750 274.706 C 502.988 274.944, 505.012 274.944, 506.250 274.706 C 507.488 274.467, 506.475 274.272, 504 274.272 C 501.525 274.272, 500.512 274.467, 501.750 274.706 M 267.264 286.718 C 268.784 286.947, 271.034 286.941, 272.264 286.704 C 273.494 286.467, 272.250 286.279, 269.500 286.286 C 266.750 286.294, 265.744 286.488, 267.264 286.718 M 205.946 310.750 L 202.500 314.500 206.250 311.054 C 209.740 307.846, 210.460 307, 209.696 307 C 209.529 307, 207.842 308.688, 205.946 310.750 M 15.320 324 C 15.320 327.575, 15.502 329.038, 15.723 327.250 C 15.945 325.462, 15.945 322.538, 15.723 320.750 C 15.502 318.962, 15.320 320.425, 15.320 324 M 184.437 334.250 L 181.500 337.500 184.750 334.563 C 186.537 332.948, 188 331.485, 188 331.313 C 188 330.540, 187.175 331.221, 184.437 334.250 M 383.300 349 C 383.300 352.025, 383.487 353.262, 383.716 351.750 C 383.945 350.238, 383.945 347.762, 383.716 346.250 C 383.487 344.738, 383.300 345.975, 383.300 349 M 382.272 364 C 382.272 366.475, 382.467 367.488, 382.706 366.250 C 382.944 365.012, 382.944 362.988, 382.706 361.750 C 382.467 360.512, 382.272 361.525, 382.272 364 M 107.946 368.750 L 104.500 372.500 108.250 369.054 C 110.313 367.158, 112 365.471, 112 365.304 C 112 364.540, 111.154 365.260, 107.946 368.750 M 16.286 378.500 C 16.294 381.250, 16.488 382.256, 16.718 380.736 C 16.947 379.216, 16.941 376.966, 16.704 375.736 C 16.467 374.506, 16.279 375.750, 16.286 378.500 M 383.360 383 C 383.360 388.225, 383.529 390.363, 383.735 387.750 C 383.941 385.137, 383.941 380.863, 383.735 378.250 C 383.529 375.637, 383.360 377.775, 383.360 383 M 138.946 384.750 L 135.500 388.500 139.250 385.054 C 142.740 381.846, 143.460 381, 142.696 381 C 142.529 381, 140.842 382.688, 138.946 384.750 M 382.232 397 C 382.232 398.925, 382.438 399.712, 382.689 398.750 C 382.941 397.788, 382.941 396.212, 382.689 395.250 C 382.438 394.288, 382.232 395.075, 382.232 397 M 119.469 406.250 L 113.500 412.500 119.750 406.531 C 125.556 400.987, 126.458 400, 125.719 400 C 125.564 400, 122.751 402.813, 119.469 406.250 M 31 447.313 C 31 447.485, 32.462 448.948, 34.250 450.563 L 37.500 453.500 34.563 450.250 C 31.825 447.221, 31 446.540, 31 447.313 M 356.971 461.750 L 350.500 468.500 357.250 462.029 C 360.962 458.470, 364 455.432, 364 455.279 C 364 454.543, 362.982 455.480, 356.971 461.750 M 125.250 491.716 C 126.763 491.945, 129.238 491.945, 130.750 491.716 C 132.262 491.487, 131.025 491.300, 128 491.300 C 124.975 491.300, 123.737 491.487, 125.250 491.716 M 263.250 491.689 C 264.212 491.941, 265.788 491.941, 266.750 491.689 C 267.712 491.438, 266.925 491.232, 265 491.232 C 263.075 491.232, 262.288 491.438, 263.250 491.689 M 148.250 493.689 C 149.213 493.941, 150.787 493.941, 151.750 493.689 C 152.713 493.438, 151.925 493.232, 150 493.232 C 148.075 493.232, 147.287 493.438, 148.250 493.689 M 226.250 493.689 C 227.213 493.941, 228.787 493.941, 229.750 493.689 C 230.713 493.438, 229.925 493.232, 228 493.232 C 226.075 493.232, 225.287 493.438, 226.250 493.689" stroke="none" fill="#ff3434" fill-rule="evenodd"/><path d="M 178.179 1.318 C 178.905 2.043, 181.748 4.351, 184.495 6.447 C 190.444 10.985, 199.223 23.208, 201.677 30.370 C 202.977 34.164, 203.443 38.756, 203.467 48 C 203.497 59.208, 203.217 61.264, 200.759 67.896 C 197.085 77.808, 187.956 89.531, 180.155 94.355 C 175.901 96.985, 168.205 99.984, 162.500 101.235 C 160.300 101.717, 140.275 102.489, 118 102.950 C 75.799 103.824, 65.833 104.750, 52.195 109.067 C 29.205 116.343, 11.583 134.446, 3.225 159.373 L 0.500 167.500 0.500 301.500 L 0.500 435.500 3.051 441.500 C 6.941 450.648, 18.258 467.105, 25.981 474.843 C 29.786 478.656, 36.421 484.413, 40.724 487.638 C 50.921 495.277, 69.376 504.485, 79.500 506.984 C 100.006 512.045, 98.919 512, 199.901 512 C 292.667 512, 294.688 511.959, 302.020 509.921 C 306.134 508.778, 316.700 506.314, 325.500 504.446 C 334.300 502.577, 343.595 500.397, 346.155 499.601 C 353.655 497.268, 365.931 490.904, 367.997 488.277 C 369.046 486.943, 371.685 484.562, 373.862 482.985 C 377.375 480.440, 386.707 468.087, 392.849 457.851 C 394.053 455.844, 396.781 449.094, 398.912 442.851 C 403.415 429.654, 405.680 412.658, 407.020 382 C 407.465 371.825, 408.350 356.856, 408.987 348.736 C 410.038 335.339, 410.500 333.101, 413.978 324.554 C 416.086 319.373, 420.395 310.570, 423.554 304.990 C 428.256 296.686, 430.575 293.771, 436.335 288.923 C 440.205 285.665, 443.812 283, 444.350 283 C 444.888 283, 448.706 281.397, 452.833 279.438 C 459.690 276.183, 461.462 275.799, 473.418 274.974 C 488.886 273.906, 504.509 273.752, 508.869 274.624 L 511.988 275.248 512.250 354.374 C 512.394 397.893, 512.515 373.875, 512.518 301 C 512.520 228.125, 512.400 187.063, 512.250 209.750 L 511.978 251 502.739 251.038 C 462.106 251.205, 442.809 255.222, 424.164 267.393 C 416.848 272.169, 404.415 284.817, 400.468 291.500 C 395.607 299.729, 389.134 317.773, 386.461 330.546 C 383.949 342.547, 383.733 345.487, 383.523 370.500 C 383.313 395.388, 383.087 398.493, 380.634 410.192 C 378.008 422.715, 372.825 439.139, 368.788 447.729 C 367.648 450.153, 363.396 455.665, 359.338 459.978 C 353.380 466.313, 350.763 468.302, 345.730 470.325 C 323.092 479.426, 317.433 481.496, 308.500 483.943 C 303 485.450, 294.900 487.196, 290.500 487.824 C 286.100 488.452, 278.900 489.632, 274.500 490.448 C 270.100 491.263, 262.380 491.946, 257.344 491.965 C 252.309 491.984, 239.978 492.714, 229.944 493.586 C 195.869 496.549, 135.038 494.300, 109 489.114 C 97.297 486.783, 78.732 481.408, 73.923 478.958 C 68.837 476.367, 58.670 469.513, 57.091 467.609 C 56.356 466.724, 55.215 466, 54.556 466 C 53.896 466, 49.894 463.187, 45.663 459.750 C 41.432 456.313, 36.630 452.456, 34.991 451.179 C 28.174 445.868, 20.249 426.295, 18.115 409.500 C 16.776 398.956, 16.048 373.438, 15.507 318 C 15.263 292.975, 14.768 256.750, 14.408 237.500 C 13.789 204.451, 13.873 201.810, 15.914 190.122 C 19.755 168.121, 28.105 150.843, 39.319 141.688 C 45.788 136.406, 59.755 130.081, 68.870 128.305 C 74.327 127.241, 87.748 126.611, 116 126.094 C 139.906 125.656, 156.487 124.951, 158 124.309 C 159.375 123.726, 162.975 122.917, 166 122.511 C 173.708 121.478, 179.400 119.412, 187.442 114.730 C 195.630 109.962, 201.281 104.944, 208.071 96.411 C 213.889 89.099, 217.063 82.511, 220.070 71.500 C 223.727 58.115, 224.249 53.946, 223.706 42.451 C 223.081 29.209, 220.283 19.884, 213.364 7.974 L 208.730 0 192.794 0 C 179.603 0, 177.085 0.227, 178.179 1.318 M 419.920 11.989 C 413.209 13.156, 407.520 16.422, 400.775 22.982 C 394.928 28.668, 394.613 28.827, 386.892 29.956 C 366.803 32.893, 353.296 41.521, 346.254 55.914 C 344.103 60.311, 343.497 63.179, 343.177 70.489 C 342.728 80.757, 344.148 87.757, 348.983 99.120 C 352.351 107.035, 352.857 110.543, 350.500 109.638 C 349.348 109.196, 349 109.852, 349 112.466 C 349 117.413, 350.565 120.777, 354.250 123.755 C 356.037 125.199, 359.872 128.770, 362.771 131.690 C 367.124 136.076, 368.647 137, 371.521 137 C 373.434 137, 375 136.578, 375 136.063 C 375 135.548, 372.887 132.060, 370.305 128.313 C 350.205 99.147, 343.945 84.359, 345.408 69.500 C 346.632 57.079, 356.306 44.109, 369.050 37.804 C 374.647 35.034, 387.311 32, 393.272 32 C 396.090 32, 397.176 31.269, 400.040 27.446 C 409.054 15.416, 423.730 10.789, 434.907 16.453 C 440.653 19.364, 447.507 26.786, 448.352 31.010 L 448.955 34.023 454.458 33.376 C 457.800 32.983, 461.691 33.214, 464.366 33.962 C 469.743 35.468, 479.835 43.447, 483.978 49.468 C 487.595 54.725, 489.009 60, 486.800 60 C 484.882 60, 471.055 55.281, 469.622 54.137 C 469.005 53.644, 465.732 52.243, 462.348 51.023 C 456.796 49.020, 456.038 48.399, 454.562 44.652 C 452.140 38.501, 448.129 34.406, 441.601 31.417 C 436.541 29.101, 434.841 28.813, 428.639 29.219 C 417.528 29.948, 407.037 36.511, 403.933 44.676 C 402.397 48.716, 402.872 56.582, 404.994 62.253 C 407.598 69.213, 415.736 77.093, 420.184 76.961 C 420.908 76.939, 419.938 76.244, 418.030 75.417 C 416.121 74.589, 413.709 73.144, 412.670 72.206 C 409.626 69.457, 405.159 59.680, 404.427 54.163 C 403.815 49.552, 404.053 48.593, 406.906 44.147 C 411.783 36.546, 421.584 31, 430.139 31 C 436.995 31, 446.354 36.555, 450.789 43.258 C 453.227 46.941, 453.485 48.176, 453.347 55.517 C 453.161 65.389, 450.351 73.032, 446.184 75 C 440.421 77.722, 439.306 78.064, 433.500 78.896 L 427.500 79.756 433.782 79.878 C 437.380 79.948, 441.598 79.359, 443.654 78.500 C 445.629 77.675, 447.414 77, 447.622 77 C 447.830 77, 448 79.892, 448 83.427 C 448 88.838, 448.559 90.926, 451.532 96.631 C 455.659 104.549, 459.757 108.435, 465.978 110.332 C 471.109 111.896, 471.749 113.212, 471.895 122.500 C 472.023 130.654, 470.519 135.419, 466.370 140.012 C 460.525 146.482, 456.291 147.505, 435.500 147.470 C 411.624 147.431, 393.238 144.397, 385.700 139.252 C 380.914 135.986, 372.682 123.566, 366.475 110.250 C 362.002 100.651, 360 97.950, 360 101.514 C 360 103.352, 363.367 110.372, 372.375 127.322 C 376.124 134.373, 378.889 140.445, 378.520 140.813 C 378.152 141.182, 377.460 140.787, 376.984 139.936 C 376.379 138.855, 375.058 138.512, 372.606 138.798 L 369.094 139.208 371.240 142.110 C 372.713 144.103, 373.952 144.833, 375.193 144.439 C 376.411 144.052, 377 144.376, 377 145.433 C 377 146.589, 378.027 147, 380.918 147 C 383.073 147, 385.548 147.273, 386.418 147.607 C 390.017 148.988, 387.669 145.764, 383.750 143.943 C 378.756 141.624, 380.422 141.897, 395.960 145.949 C 403.678 147.961, 412.169 149.308, 421.960 150.073 C 462.118 153.210, 474.916 145.919, 473.849 120.513 L 473.500 112.216 478.824 111.591 C 488.971 110.399, 496.283 104.808, 501.149 94.523 C 504.404 87.642, 504.672 83.629, 502.389 75.932 C 501.220 71.989, 499.473 69.194, 496.018 65.736 C 492.688 62.403, 491.080 59.883, 490.669 57.348 C 489.485 50.050, 478.145 37.329, 469.154 33.213 C 465.772 31.665, 461.139 30.528, 457 30.232 C 450.506 29.767, 450.278 29.659, 449.123 26.463 C 448.468 24.653, 446.168 21.578, 444.011 19.629 C 436.491 12.835, 428.900 10.428, 419.920 11.989 M 423 35.939 C 417.851 36.974, 413.712 39.425, 410.028 43.621 C 406.854 47.236, 406.772 47.553, 407.221 54.548 C 407.805 63.636, 410.313 67.932, 417.898 72.836 C 423.203 76.266, 423.937 76.456, 431.748 76.420 C 439.251 76.386, 440.378 76.114, 444.248 73.401 C 449.399 69.788, 450.567 66.123, 449.562 56.732 C 448.063 42.738, 436.032 33.320, 423 35.939 M 430.500 40.513 C 431.600 41.420, 433.185 42.688, 434.023 43.331 C 434.860 43.974, 436.997 46.290, 438.773 48.478 C 441.409 51.727, 442 53.335, 442 57.259 C 442 60.630, 441.548 62.236, 440.484 62.645 C 439.650 62.965, 434.453 60.926, 428.936 58.113 C 414.733 50.874, 412.280 51.320, 417.864 60.125 C 422.256 67.050, 425.651 69.311, 430.497 68.538 C 432.699 68.186, 435.497 67.247, 436.715 66.449 C 437.933 65.652, 439.603 65, 440.426 65 C 443.288 65, 446 60.845, 446 56.459 C 446 49.752, 438.482 40.956, 431.500 39.492 C 428.595 38.884, 428.563 38.916, 430.500 40.513 M 455 56.933 C 455 63.785, 454.514 66.252, 452 72.160 C 447.284 83.242, 448.246 90.572, 455.595 99.561 C 462.006 107.402, 466.331 110, 472.972 110 C 481.648 110, 487.684 107.485, 493.651 101.382 C 502.383 92.451, 504.122 82.090, 498.497 72.500 C 495.281 67.016, 492.348 65.107, 481.466 61.414 C 471.814 58.139, 461.198 53.315, 457.250 50.411 L 455 48.756 455 56.933 M 464.718 67.061 C 462.637 67.568, 459.679 68.632, 458.145 69.425 C 454.951 71.076, 452.187 74, 453.819 74 C 454.403 74, 455.142 73.578, 455.461 73.063 C 458.002 68.952, 471.491 67.669, 478.500 70.871 C 484.152 73.453, 488.627 77.988, 489.833 82.356 C 491.320 87.741, 488.458 98.388, 484.217 103.250 C 482.312 105.434, 480.267 105.588, 482.073 103.412 C 484.172 100.883, 487.266 91.904, 487.729 87 C 488.089 83.183, 487.686 81.855, 485.071 78.250 C 483.375 75.912, 481.566 74, 481.052 74 C 480.537 74, 481.209 75.912, 482.546 78.250 C 485.794 83.930, 485.785 95, 482.532 95 C 481.853 95, 479.182 96.125, 476.596 97.500 C 474.010 98.875, 471.273 100, 470.514 100 C 468.924 100, 463.015 93.008, 460.625 88.300 C 456.517 80.208, 460.830 79.878, 471.090 87.500 C 475.162 90.525, 479.003 93, 479.625 93 C 482.289 93, 482.695 90.432, 481.063 83.891 C 478.923 75.311, 477.102 72.684, 472.164 71.054 C 468.484 69.840, 467.615 69.924, 462.533 71.987 C 450.916 76.702, 449.168 79.492, 451.960 88.865 C 453.617 94.428, 454.948 96.662, 459.055 100.769 C 465.622 107.337, 469.854 109.351, 475.314 108.508 C 488.210 106.516, 496.890 94.890, 494.599 82.677 C 493.557 77.124, 486.811 70.283, 480.669 68.552 C 473.075 66.413, 468.959 66.028, 464.718 67.061 M 374.562 70.250 C 376.359 76.052, 388.490 97.501, 395.114 106.586 C 400.139 113.480, 407.093 119.423, 413.870 122.615 C 418.929 124.997, 458.002 135.332, 458.828 134.506 C 459.433 133.900, 449.596 129.855, 446 129.231 C 442.830 128.681, 442.729 128.569, 444.928 128.034 C 447.093 127.508, 446.553 126.966, 439.928 123.016 C 419.612 110.905, 403.677 99.703, 394.500 91.080 C 389.300 86.194, 386.338 84.578, 385.660 86.258 C 385.280 87.199, 385.139 87.181, 385.079 86.183 C 385.036 85.459, 383.925 83.434, 382.612 81.683 C 381.298 79.932, 379.041 76.138, 377.595 73.250 C 374.880 67.827, 373.340 66.304, 374.562 70.250 M 380.627 70.027 C 382.066 71.466, 392 72.547, 392 71.264 C 392 70.129, 387.349 69, 382.675 69 C 380.572 69, 379.924 69.324, 380.627 70.027 M 380 74.481 C 380 77.195, 399.999 94.970, 414.042 104.737 C 429.676 115.611, 457.844 131.552, 460.098 130.801 C 460.708 130.597, 458.817 129.130, 455.896 127.540 C 449.831 124.239, 410.358 98.001, 403.828 92.931 C 401.448 91.082, 395.675 86.374, 391 82.468 C 382.049 74.989, 380 73.501, 380 74.481 M 391.255 97.265 C 393.496 100.638, 398.765 106.885, 402.964 111.147 C 408.880 117.151, 412.308 119.696, 418.185 122.448 C 422.356 124.402, 426.384 125.987, 427.135 125.972 C 427.886 125.957, 425.752 124.713, 422.394 123.208 C 411.235 118.207, 402.366 110.411, 393.500 97.808 C 388.057 90.071, 386.175 89.616, 391.255 97.265 M 258.253 95.147 C 257.543 95.857, 257.266 98.127, 257.550 100.909 L 258.018 105.500 255.884 100.750 C 254.420 97.491, 253.152 96, 251.844 96 C 248.741 96, 248.658 98.560, 251.597 103.576 C 254.712 108.891, 252.840 109.464, 249.500 104.218 C 248.400 102.491, 247.038 101.060, 246.473 101.039 C 245.012 100.984, 241 103.931, 241 105.058 C 241 105.578, 243.250 107.620, 246.001 109.596 C 251.284 113.392, 252.024 116.064, 246.997 113.191 C 243.213 111.028, 240.500 112.456, 240.500 116.609 C 240.500 119.296, 240.800 119.522, 244.761 119.808 C 248.179 120.055, 250.893 119.200, 258.487 115.481 C 268.233 110.708, 273 106.492, 273 102.646 C 273 99.586, 270.272 96, 267.943 96 C 266.330 96, 266 96.707, 266 100.167 C 266 104.966, 265.165 104.574, 263.017 98.766 C 261.369 94.310, 260.074 93.326, 258.253 95.147 M 271.919 109.488 C 269.602 111.771, 254.984 119.455, 248.201 121.957 C 242.001 124.244, 241.913 124.329, 242.570 127.390 C 243.658 132.463, 244.822 133.856, 248.250 134.187 C 251.156 134.467, 251.976 135.339, 256.068 142.500 L 260.639 150.500 276.070 150.547 C 288.411 150.585, 292.952 151, 298.754 152.621 C 307.221 154.987, 306.239 155.580, 313.249 143.864 C 315.762 139.665, 320.365 132.915, 323.479 128.864 L 329.139 121.500 326.388 121.166 C 324.874 120.982, 317.579 121.593, 310.176 122.522 C 300.890 123.689, 294.102 123.995, 288.285 123.511 C 280.327 122.848, 279.752 122.641, 278.043 119.830 C 277.047 118.192, 275.954 115.111, 275.613 112.984 C 274.894 108.483, 273.897 107.540, 271.919 109.488 M 342.975 112.250 C 341.878 114.037, 340.433 116.994, 339.764 118.819 C 338.655 121.846, 338.269 122.086, 335.374 121.542 C 332.484 121, 331.801 121.419, 327.750 126.223 C 323.535 131.221, 313.843 145.582, 311.028 151 C 310.314 152.375, 308.705 154.625, 307.453 156 C 306.201 157.375, 300.988 163.225, 295.867 169 C 268.126 200.287, 239.440 230, 236.975 230 C 236.293 230, 234.229 229.068, 232.386 227.930 C 230.544 226.791, 228.616 226.119, 228.101 226.437 C 227.587 226.755, 218.261 238.149, 207.376 251.758 C 167.322 301.834, 146.661 326.278, 107.015 370.500 C 92.199 387.026, 88.366 391.738, 84.114 398.655 C 77.281 409.771, 72.662 430.815, 76.379 433.900 C 80.073 436.965, 93.120 430.412, 106.033 419.005 C 116.690 409.591, 121.025 404.951, 165.775 355.040 C 213.019 302.348, 228.328 286.573, 235.783 282.900 C 240.525 280.563, 242.842 280.713, 253.855 284.065 C 258.358 285.436, 263.182 286, 270.405 286 C 281.648 286, 283 286.591, 283 291.503 C 283 294.937, 278.114 303.167, 262.720 325.660 C 251.408 342.190, 248.822 347.133, 245.512 358.554 C 241.611 372.016, 242.341 384.021, 247.152 385.548 C 253.641 387.608, 270.117 374.162, 281.642 357.401 C 294.864 338.173, 308.243 319.470, 320.922 302.491 C 328.304 292.605, 336.010 281.363, 338.048 277.509 L 341.752 270.500 340.746 261.669 C 340.074 255.775, 339.275 252.659, 338.344 252.302 C 337.577 252.007, 334.373 252.471, 331.225 253.332 C 314.506 257.904, 305.165 260.808, 302.267 262.332 C 300.489 263.268, 296.994 264.313, 294.501 264.655 C 290.175 265.248, 289.819 265.102, 286.733 261.473 C 284.955 259.382, 282.375 256.467, 281 254.996 C 276.004 249.653, 266.853 237.046, 267.367 236.215 C 267.657 235.746, 276.498 229.543, 287.012 222.431 C 297.527 215.319, 307.114 208.832, 308.315 208.015 C 319.380 200.496, 332.659 190.721, 338 186.165 C 346.295 179.088, 362 163.780, 362 162.771 C 362 162.347, 360.953 162, 359.674 162 C 358.395 162, 356.288 160.872, 354.993 159.492 C 352.693 157.044, 352.677 156.901, 354.318 153.458 C 355.243 151.519, 356 149.671, 356 149.353 C 356 148.793, 353.217 149.195, 347.997 150.509 C 343.861 151.550, 340.001 149.508, 339.995 146.275 C 339.988 142.381, 344.919 128.956, 347.357 126.230 C 349.142 124.233, 349.243 123.561, 348.194 120.659 C 347.537 118.843, 347 115.477, 347 113.179 C 347 108.163, 345.673 107.856, 342.975 112.250 M 390 147.418 C 390 147.765, 391.174 148.496, 392.608 149.041 C 394.898 149.912, 395.141 150.434, 394.601 153.315 C 394.211 155.394, 394.483 157.278, 395.343 158.455 C 396.576 160.141, 397.155 160.199, 401.601 159.081 C 406.763 157.782, 416 153.201, 416 151.939 C 416 151.531, 413.188 150.899, 409.750 150.536 C 401.996 149.717, 394.061 148.364, 391.750 147.466 C 390.788 147.092, 390 147.070, 390 147.418 M 412.500 157.060 C 405.801 161.910, 397.448 163.403, 393.292 160.492 C 391.339 159.124, 391.088 159.149, 390.578 160.756 C 390.268 161.730, 388.009 164.713, 385.556 167.384 C 381.642 171.647, 380.755 172.156, 378.298 171.543 C 376.759 171.158, 374.790 170.204, 373.921 169.422 C 372.485 168.129, 372.467 168.745, 373.716 176.250 C 375.115 184.655, 375.821 207.456, 375.102 221 L 374.704 228.500 381.102 228.245 C 384.621 228.105, 391.550 227.481, 396.500 226.857 C 401.450 226.233, 416.038 225.447, 428.919 225.111 C 446.116 224.662, 452.446 224.173, 452.746 223.269 C 453.290 221.629, 446.384 215.279, 442.014 213.402 C 440.096 212.578, 437.513 210.952, 436.274 209.788 C 433.150 206.853, 430 197.903, 430 191.962 C 430 189.233, 429.595 187, 429.100 187 C 428.606 187, 426.018 188.500, 423.350 190.333 C 404.935 202.988, 401.480 205.247, 399.238 206.100 C 397.855 206.626, 396.513 206.846, 396.257 206.590 C 396.001 206.334, 397.390 203.059, 399.343 199.312 C 401.296 195.566, 404.069 189.350, 405.506 185.500 C 410.346 172.529, 412.185 168.507, 413.964 167 C 414.938 166.175, 416.244 163.388, 416.867 160.807 C 418.790 152.842, 418.578 152.660, 412.500 157.060 M 0.485 302 C 0.485 374.875, 0.604 404.688, 0.750 368.250 C 0.895 331.813, 0.895 272.188, 0.750 235.750 C 0.604 199.313, 0.485 229.125, 0.485 302 M 433.876 184.124 C 431.996 186.004, 431.810 187.062, 432.252 193.374 C 432.937 203.151, 436.270 208.999, 442.772 211.834 C 445.372 212.968, 448.776 215.269, 450.335 216.948 C 453.773 220.650, 458 221.136, 458 217.829 C 458 216.635, 457.321 214.907, 456.491 213.990 C 455.114 212.468, 455.338 212.215, 459.044 211.105 C 462.865 209.960, 465.023 207.690, 463.622 206.289 C 463.278 205.945, 461.985 206.153, 460.748 206.752 C 457.621 208.266, 451.148 209.049, 450.495 207.992 C 450.198 207.511, 452.664 206.356, 455.977 205.426 C 462.228 203.672, 462.971 202.710, 460.587 199.450 C 459.197 197.548, 459.099 197.553, 454.560 199.759 C 448.364 202.769, 445.547 202.748, 449.106 199.718 C 450.539 198.498, 452.532 197.021, 453.534 196.436 C 454.754 195.724, 455.129 194.778, 454.667 193.575 C 454.054 191.978, 453.472 192.192, 449.434 195.501 C 446.935 197.548, 444.585 198.918, 444.212 198.545 C 443.839 198.172, 445.441 196.283, 447.772 194.346 C 450.103 192.410, 451.756 190.415, 451.446 189.913 C 450.383 188.192, 445.464 189, 441.785 191.500 C 439.762 192.875, 437.632 194, 437.053 194 C 434.849 194, 436.163 192.387, 440.500 189.767 C 444.768 187.190, 446.128 184.815, 444.067 183.541 C 443.554 183.224, 441.765 184.430, 440.091 186.221 L 437.048 189.477 437.655 185.738 C 438.357 181.414, 437.116 180.884, 433.876 184.124 M 338.638 196.500 C 337.784 198.726, 338.970 201, 340.985 201 C 343.293 201, 345.382 198.438, 344.643 196.513 C 343.893 194.557, 339.388 194.547, 338.638 196.500 M 327.494 214.009 C 327.152 214.564, 327.164 215.940, 327.521 217.067 C 328.560 220.339, 333.405 219.325, 333.816 215.750 C 334.100 213.289, 333.816 213, 331.125 213 C 329.471 213, 327.837 213.454, 327.494 214.009 M 315.152 228.885 C 312.884 230.322, 314.231 233.467, 317.264 233.817 C 320.762 234.221, 322.187 231.341, 319.471 229.355 C 317.314 227.778, 316.959 227.740, 315.152 228.885" stroke="none" fill="#ffffff" fill-rule="evenodd"/></svg>