<svg xmlns="http://www.w3.org/2000/svg" width="512" height="512" viewBox="0 0 512 512" version="1.1"><path d="M 218.345 1.433 C 210.654 3.839, 199.297 10.076, 192.701 15.517 C 185.528 21.433, 178.181 30.158, 169.979 42.500 C 154.139 66.335, 136.456 88.721, 113.227 114.346 C 98.489 130.604, 84.190 152.470, 79.104 166.527 C 74.060 180.466, 72.687 189.463, 73.245 204.910 C 73.668 216.602, 74.153 219.715, 76.723 227.198 C 83.425 246.713, 96.493 263.372, 116.801 278.286 C 123.861 283.470, 146.989 295.507, 157.475 299.454 C 161.252 300.876, 164.940 302.536, 165.671 303.142 C 166.561 303.880, 167.005 306.765, 167.015 311.872 C 167.024 316.068, 167.379 320.049, 167.805 320.720 C 168.294 321.488, 172.784 322.194, 179.959 322.630 C 190.671 323.281, 191.297 323.215, 190.644 321.515 C 190.002 319.842, 190.474 319.757, 196.989 320.362 C 213.741 321.919, 231.405 322.185, 245 321.083 C 268.568 319.174, 301.321 314.053, 313.182 310.423 C 314.531 310.010, 315.001 310.826, 315.559 314.547 L 316.255 319.186 324.377 318.481 C 328.845 318.093, 332.628 317.661, 332.785 317.520 C 332.941 317.379, 332.615 315.292, 332.059 312.882 C 330.219 304.899, 330.442 304.343, 336.250 302.444 C 361.851 294.074, 404.312 272.053, 421.272 258.350 C 429.311 251.855, 435.323 244.574, 438.901 237 C 441.172 232.193, 441.495 230.240, 441.460 221.500 C 441.425 212.832, 441.037 210.567, 438.546 204.500 C 434.654 195.019, 428.894 185.601, 420.731 175.374 L 413.914 166.834 420.207 160.161 C 423.668 156.491, 428.210 150.232, 430.301 146.252 C 439.797 128.169, 439.397 101.827, 429.308 81 C 425.036 72.181, 414.190 60.651, 406.878 57.155 C 389.705 48.946, 368.616 51.965, 351.427 65.095 C 343.719 70.983, 343.298 72.311, 346.404 80.923 C 347.832 84.881, 349 88.992, 349 90.060 C 349 93.107, 350.268 92.363, 353.327 87.522 C 360.488 76.186, 371.920 69.728, 385.048 69.600 C 391.637 69.536, 393.440 69.942, 399.245 72.800 C 423.319 84.651, 430.630 123.740, 412.949 146.064 C 410.935 148.607, 407.243 151.253, 402.301 153.696 C 395.234 157.189, 394.171 157.427, 386.118 157.319 C 372.800 157.141, 362.267 152.751, 351.275 142.797 L 345.754 137.797 344.290 140.820 C 343.485 142.483, 341.311 145.614, 339.458 147.778 L 336.090 151.712 338.795 154.247 C 343.982 159.108, 355.423 166.018, 363.337 169.070 C 373.780 173.097, 386.192 174.658, 396.088 173.190 C 402.208 172.281, 403.607 172.333, 404.256 173.493 C 404.687 174.263, 408.666 179.725, 413.099 185.632 C 424.706 201.098, 430 212.653, 430 222.522 C 430 229.272, 425.033 237.844, 416.569 245.701 C 400.422 260.691, 355.078 284.478, 333.483 289.290 C 319.872 292.322, 297.682 293.372, 246.500 293.406 C 191.904 293.442, 181.583 292.699, 163.246 287.411 C 130.832 278.062, 100.504 253.812, 90.531 229.269 C 83.844 212.812, 83.326 192.927, 89.131 175.565 C 94.193 160.431, 102.656 146.654, 118.350 128 C 124.134 121.125, 135.686 107.400, 144.020 97.500 C 152.354 87.600, 163.711 72.975, 169.257 65 C 188.245 37.696, 190.430 34.855, 197.959 27.683 C 202.107 23.732, 208.200 19.087, 211.500 17.359 C 230.062 7.641, 256.546 9.502, 272.750 21.663 C 274.538 23.004, 276 24.435, 276 24.842 C 276 25.249, 271.837 26.351, 266.750 27.291 C 248.055 30.744, 231.099 42.098, 220.117 58.516 C 213.128 68.966, 208 84.222, 208 94.565 L 208 98 213.250 97.998 L 218.500 97.997 221.140 87.048 C 227.643 60.083, 242.887 42.076, 265.722 34.385 C 279.385 29.784, 298.407 31.119, 311.145 37.574 C 313.779 38.908, 316.286 39.990, 316.717 39.978 C 317.148 39.966, 318.175 38.528, 319 36.781 C 320.854 32.856, 329.794 27.780, 339.014 25.417 C 349.075 22.839, 363.455 24.569, 375.222 29.774 C 380.718 32.205, 389 37.717, 389 38.944 C 389 39.410, 385.288 40.116, 380.750 40.512 C 370.300 41.424, 359.701 44.106, 352.846 47.573 C 346.505 50.780, 335.998 57.776, 336.004 58.787 C 336.009 59.848, 339.880 66, 340.541 66 C 340.855 66, 343.870 63.768, 347.242 61.040 C 366.874 45.155, 391.349 41.569, 410.425 51.783 C 413.216 53.277, 418.661 57.650, 422.524 61.500 C 433.933 72.870, 441.258 89.500, 442.677 107.250 L 443.296 115 447.786 115 L 452.275 115 451.590 106.250 C 449.691 82.004, 441.219 63.999, 425.725 51.278 C 420.324 46.844, 410.175 41.003, 407.860 40.996 C 407.112 40.994, 404.613 38.548, 402.306 35.561 C 397.370 29.170, 386.082 20.933, 378.133 17.923 C 370.043 14.858, 355.570 12.028, 347.910 12.013 C 335.475 11.988, 320.815 17.125, 312.290 24.495 C 308.698 27.600, 308.637 27.613, 303.618 26.311 C 300.839 25.590, 297.200 24.994, 295.532 24.988 C 293.180 24.978, 291.998 24.201, 290.263 21.521 C 285.756 14.563, 273.220 6.454, 260.181 2.061 C 254.983 0.310, 251.690 0.010, 238.282 0.067 C 228.317 0.109, 220.968 0.613, 218.345 1.433 M 271.912 39.051 C 251.110 43.981, 234.895 60.444, 228.133 83.500 C 227.004 87.350, 225.950 92.043, 225.790 93.929 L 225.500 97.358 231.500 97.095 C 234.800 96.951, 237.664 96.669, 237.864 96.469 C 238.064 96.270, 239.249 93.183, 240.497 89.609 C 244.420 78.384, 250.472 69.940, 258.963 63.848 C 271.153 55.101, 289.280 53.417, 302.292 59.823 C 314.627 65.896, 323.242 75.985, 328.058 90 C 330.948 98.410, 331.286 113.820, 328.760 122 C 322.978 140.725, 308.075 152.527, 288.641 153.768 C 272.897 154.773, 259.304 149.343, 247.033 137.146 C 242.801 132.941, 238.243 127.475, 236.904 125 L 234.468 120.500 226.757 120.208 L 219.046 119.917 221.972 126.439 C 238.807 163.959, 278.804 180.740, 312.626 164.472 C 327.279 157.424, 339.567 141.379, 343.389 124.303 C 347.740 104.863, 343.129 81.424, 331.587 64.315 C 323.608 52.488, 309.703 42.556, 296.897 39.537 C 290.010 37.914, 277.720 37.675, 271.912 39.051 M 283.248 63.593 C 274.189 68.213, 267.114 77.668, 262.364 91.500 C 259.990 98.415, 259.618 101.059, 259.621 111 C 259.624 120.385, 260.032 123.603, 261.837 128.500 C 264.521 135.782, 269.452 143.247, 272.932 145.296 C 276.513 147.406, 283.996 148.356, 290.564 147.535 C 297.156 146.712, 296.562 147.809, 301.145 128 C 305.392 109.643, 305.664 95.040, 302.036 80.074 C 299.599 70.024, 297.612 64.496, 296.098 63.561 C 293.578 62.003, 286.329 62.022, 283.248 63.593 M 266 66.581 C 256.784 71.816, 250.074 80.239, 246.351 91.242 C 245.058 95.064, 244 99.229, 244 100.497 C 244 102.732, 243.656 102.821, 232.750 103.407 C 226.563 103.739, 212.725 104.346, 202 104.755 L 182.500 105.500 182.500 110.500 L 182.500 115.500 191 115.500 C 195.675 115.500, 208.272 115.275, 218.994 115 L 238.489 114.500 241.408 120 C 244.054 124.984, 258.560 140.774, 259.567 139.766 C 259.798 139.536, 259.087 137.485, 257.987 135.209 C 248.623 115.828, 253.398 84.284, 268.257 67.360 C 269.880 65.512, 271.048 64.005, 270.854 64.012 C 270.659 64.019, 268.475 65.175, 266 66.581 M 307.069 76.250 C 312.094 95.743, 311.762 112.146, 305.929 132.412 C 304.350 137.900, 303.246 142.579, 303.476 142.809 C 304.280 143.614, 310.836 138.924, 314.360 135.023 C 321.247 127.400, 324.237 118.846, 324.153 107.010 C 324.100 99.572, 321.531 88.907, 318.264 82.558 C 316.635 79.392, 307.200 69, 305.955 69 C 305.539 69, 306.041 72.263, 307.069 76.250 M 374.871 77.476 C 367.763 80.091, 363.126 84.135, 357.033 93.031 C 351.283 101.426, 351 102.125, 351 107.920 C 351 114.994, 352.820 116.151, 354.901 110.399 C 356.799 105.147, 359.370 102.999, 363.750 103.004 C 368.630 103.009, 373.781 106.212, 375.437 110.272 C 377.509 115.352, 378.203 122.532, 377.039 126.854 C 375.644 132.037, 370.100 137.001, 365.715 136.996 C 359.468 136.989, 352.839 130.791, 351.281 123.500 C 350.664 120.612, 350.592 120.687, 349.356 125.500 L 348.072 130.500 353.786 136.305 C 359.528 142.138, 370.212 148.367, 376.567 149.588 C 379.630 150.176, 379.641 150.162, 384.386 139.390 C 386.999 133.457, 390.494 123.405, 392.152 117.051 C 394.749 107.102, 395.179 103.619, 395.256 91.934 C 395.306 84.473, 395.016 77.836, 394.614 77.184 C 393.610 75.560, 379.512 75.769, 374.871 77.476 M 400.727 96.750 C 400.124 113.833, 397.793 123.833, 390.543 140.428 L 386.144 150.500 388.604 150.820 C 392.523 151.328, 400.365 148.235, 404.817 144.424 C 409.812 140.149, 414.679 130.635, 415.987 122.590 C 417.141 115.489, 415.934 105.571, 412.942 97.574 C 410.923 92.177, 403.838 82, 402.100 82 C 401.631 82, 401.013 88.638, 400.727 96.750 M 275.661 92.993 C 271.285 96.835, 270.695 100.125, 272.569 110.260 C 274.685 121.710, 276.656 127.329, 279.494 129.994 C 281.649 132.019, 282.250 132.139, 284.843 131.065 C 291.961 128.117, 296 120.579, 296 110.244 C 296 102.003, 293.212 95.654, 288.102 92.258 C 283.441 89.160, 279.780 89.377, 275.661 92.993 M 200.407 206.407 C 187.175 209.619, 179.258 219.819, 182.024 230.091 C 184.456 239.119, 196.819 247.808, 213.079 251.916 C 237.347 258.047, 292.781 261.656, 323.500 259.105 C 353.467 256.616, 392.872 248.760, 406.850 242.487 C 412.421 239.987, 423.018 230.684, 421.745 229.411 C 421.493 229.160, 415.062 229.644, 407.455 230.487 C 360.255 235.720, 322.183 234.479, 235.065 224.867 L 206.630 221.729 204.363 224.365 C 201.896 227.233, 199.812 227.704, 198.238 225.750 C 196.844 224.020, 198.286 220.707, 201.552 218.138 C 205.749 214.836, 206.053 214.851, 279 221.893 C 313.222 225.197, 338.668 226.313, 365.500 225.689 C 391.738 225.078, 417.766 223.413, 422 222.074 C 424.219 221.372, 423.767 221.055, 417.971 219.243 C 408.772 216.367, 397.424 215.202, 367 214.012 C 327.129 212.452, 305.529 211.221, 261 207.974 C 216.928 204.759, 208.131 204.531, 200.407 206.407 M 250.370 344.250 C 250.701 345.488, 250.979 346.782, 250.986 347.127 C 250.994 347.472, 253.021 347.526, 255.492 347.248 C 258.318 346.929, 260.543 347.206, 261.492 347.993 C 262.789 349.070, 263 348.738, 263 345.622 L 263 342 256.383 342 C 250.010 342, 249.789 342.083, 250.370 344.250 M 163.120 354.905 C 162.091 355.557, 161.912 357.014, 162.419 360.639 C 163.629 369.293, 167.178 382.380, 169.636 387.250 L 172.034 392 177.517 392 C 180.533 392, 183 391.776, 183 391.502 C 183 391.229, 181.457 388.857, 179.571 386.231 C 175.049 379.937, 169.757 368.778, 167.413 360.592 C 165.428 353.660, 165.317 353.513, 163.120 354.905 M 146.500 360.618 C 142.100 362.006, 129.950 365.821, 119.500 369.096 C 94.858 376.819, 51.078 392.169, 39.148 397.267 C 19.458 405.683, 10.030 412.236, 5.792 420.452 C 0.085 431.514, -0 432.299, -0 473.657 L 0 512 34.500 512 C 53.475 512, 69 511.722, 69 511.382 C 69 511.042, 67.647 509.223, 65.993 507.339 C 61.086 501.750, 57.271 493.026, 49.502 469.630 C 42.941 449.874, 35.270 420.397, 36.396 419.271 C 36.630 419.037, 40.124 419.746, 44.161 420.846 C 60.735 425.364, 83.707 426.976, 131.750 426.990 C 156.889 426.998, 164 426.724, 163.999 425.750 C 163.997 423.938, 160.313 388.912, 158.372 372.250 C 157.344 363.430, 156.290 358.018, 155.606 358.047 C 154.998 358.073, 150.900 359.229, 146.500 360.618 M 343.573 360.181 C 343.343 360.906, 342.384 363.975, 341.441 367 C 340.497 370.025, 338.891 374.162, 337.871 376.194 L 336.017 379.887 339.685 395.694 C 341.702 404.387, 343.619 411.823, 343.944 412.218 C 345.018 413.522, 423.303 408.197, 435.940 405.960 C 440.025 405.237, 441.569 405.303, 442.138 406.223 C 443.937 409.134, 445.420 422.537, 445.379 435.500 C 445.285 464.399, 436.551 495.210, 425.080 507.112 L 420.368 512 466.184 512 L 512 512 512 475.921 L 512 439.841 509.372 433.171 C 501.133 412.254, 490.809 403.471, 459.992 391.160 C 438.511 382.578, 410.601 374.606, 365 364.025 C 355.375 361.792, 346.710 359.716, 345.745 359.413 C 344.757 359.103, 343.808 359.438, 343.573 360.181 M 246.585 380.914 C 243.944 383.595, 239.090 387.299, 235.798 389.144 L 229.813 392.500 230.408 420 C 230.736 435.125, 231.472 453.673, 232.044 461.217 C 233.355 478.505, 233.743 505.631, 232.731 509.250 L 231.962 512 259.481 512 C 274.616 512, 287 511.832, 287 511.626 C 287 511.420, 286.294 509.282, 285.431 506.876 C 284.265 503.620, 283.637 495.716, 282.980 476 C 282.019 447.174, 281.866 444.404, 279.375 410.841 C 277.729 388.674, 277.641 388.157, 275.308 387.094 C 273.996 386.497, 270.802 384.039, 268.211 381.633 C 264.510 378.197, 263.071 377.431, 261.500 378.059 C 258.298 379.340, 254.787 379.117, 253.022 377.520 C 251.552 376.189, 250.900 376.533, 246.585 380.914 M 469.521 425.788 C 465.105 432.463, 459.620 446.280, 452.170 469.503 C 446.185 488.158, 440.818 506.799, 441.352 507.077 C 441.433 507.119, 442.982 507.232, 444.794 507.327 C 447.556 507.472, 448.178 507.097, 448.648 505 C 453.238 484.536, 468.376 440.205, 474.291 429.908 L 476.500 426.063 474.347 423.906 L 472.194 421.750 469.521 425.788 M 256.039 425.189 C 251.994 429.530, 254.116 441.950, 259.177 443.556 C 262.755 444.692, 265 440.948, 265 433.844 C 265 428.876, 264.600 427.509, 262.545 425.455 C 259.531 422.440, 258.634 422.403, 256.039 425.189 M 257.449 487.057 C 256.182 488.456, 255.463 491.092, 255.197 495.307 C 254.869 500.513, 255.152 501.938, 256.976 504.250 C 260.867 509.183, 265.717 507.173, 267.507 499.884 C 268.796 494.635, 264.336 485, 260.616 485 C 259.898 485, 258.472 485.925, 257.449 487.057" stroke="none" fill="#fdfcfd" fill-rule="evenodd"/><path d="M 384.250 75.689 C 385.212 75.941, 386.788 75.941, 387.750 75.689 C 388.712 75.438, 387.925 75.232, 386 75.232 C 384.075 75.232, 383.288 75.438, 384.250 75.689 M 228.250 97.689 C 229.213 97.941, 230.787 97.941, 231.750 97.689 C 232.713 97.438, 231.925 97.232, 230 97.232 C 228.075 97.232, 227.287 97.438, 228.250 97.689 M 437.252 114.500 C 437.263 116.700, 437.468 117.482, 437.707 116.238 C 437.946 114.994, 437.937 113.194, 437.687 112.238 C 437.437 111.282, 437.241 112.300, 437.252 114.500 M 377.232 122 C 377.232 123.925, 377.438 124.713, 377.689 123.750 C 377.941 122.787, 377.941 121.213, 377.689 120.250 C 377.438 119.287, 377.232 120.075, 377.232 122 M 72.300 201 C 72.300 204.025, 72.487 205.262, 72.716 203.750 C 72.945 202.238, 72.945 199.762, 72.716 198.250 C 72.487 196.738, 72.300 197.975, 72.300 201 M 213.250 293.716 C 214.762 293.945, 217.238 293.945, 218.750 293.716 C 220.262 293.487, 219.025 293.300, 216 293.300 C 212.975 293.300, 211.738 293.487, 213.250 293.716 M 271.250 293.689 C 272.212 293.941, 273.788 293.941, 274.750 293.689 C 275.712 293.438, 274.925 293.232, 273 293.232 C 271.075 293.232, 270.288 293.438, 271.250 293.689 M 322.393 326.046 C 297.221 329.916, 279.414 335.819, 273.199 342.354 C 269.961 345.758, 267.665 352.778, 270.138 351.713 C 278.644 348.048, 294.071 341.976, 296.156 341.472 C 298.303 340.953, 298.943 341.244, 299.496 342.987 C 300.817 347.148, 294.469 351.243, 277.685 357.056 L 270.869 359.416 279.685 361.606 C 295.276 365.480, 305.707 371.428, 303.414 375.139 C 302.439 376.717, 296.281 375.657, 282.971 371.618 C 276.662 369.704, 270.712 367.833, 269.750 367.462 C 268.442 366.956, 268 367.291, 268 368.785 C 268 372.036, 279.128 381.474, 288.260 385.969 C 295.941 389.749, 310.970 393.927, 317.072 393.978 C 319.226 393.996, 320.313 392.823, 323.770 386.750 C 334.156 368.506, 339.832 350.966, 341.575 331.733 L 342.276 324 338.388 324.092 C 336.250 324.143, 329.052 325.022, 322.393 326.046 M 169.448 332.594 C 169.701 334.193, 170.169 338.562, 170.487 342.304 C 171.941 359.375, 182.447 381.425, 194.814 393.363 L 198.815 397.226 207.158 394.486 C 221.084 389.914, 232.162 383.632, 241.055 375.267 C 253.181 363.859, 252.327 363.547, 232.270 372.064 C 215.815 379.051, 211.377 380.147, 210.353 377.477 C 208.657 373.059, 226.455 362.681, 238.090 361.303 C 240.823 360.979, 243.239 360.422, 243.460 360.064 C 243.681 359.707, 237.671 358.144, 230.105 356.592 C 222.538 355.040, 215.303 352.982, 214.026 352.019 C 211.720 350.280, 211.717 350.251, 213.602 347.666 C 214.646 346.234, 216.260 345.049, 217.188 345.031 C 219.476 344.989, 231.070 347.681, 238.902 350.073 C 242.423 351.149, 245.494 351.839, 245.726 351.607 C 246.697 350.636, 242.775 344.990, 239.116 342.092 C 229.301 334.318, 217.438 331.778, 184.275 330.348 L 168.988 329.689 169.448 332.594 M 229.272 397 C 229.272 399.475, 229.467 400.488, 229.706 399.250 C 229.944 398.012, 229.944 395.988, 229.706 394.750 C 229.467 393.512, 229.272 394.525, 229.272 397 M 283.232 492 C 283.232 493.925, 283.438 494.712, 283.689 493.750 C 283.941 492.788, 283.941 491.212, 283.689 490.250 C 283.438 489.288, 283.232 490.075, 283.232 492" stroke="none" fill="#ff2525" fill-rule="evenodd"/></svg>